<svg width="32" height="31" viewBox="0 0 32 31" fill="none" xmlns="http://www.w3.org/2000/svg">
<path d="M0.553101 30.7327V11.1901C0.553101 10.8108 0.703755 10.4471 0.971922 10.179C1.24009 9.91079 1.6038 9.76014 1.98305 9.76014H5.79623C6.17548 9.76014 6.53919 9.91079 6.80736 10.179C7.07552 10.4471 7.22618 10.8108 7.22618 11.1901V30.7327H0.553101ZM12.4693 30.7327V1.65712C12.4693 1.27787 12.62 0.914161 12.8881 0.645994C13.1563 0.377827 13.52 0.227173 13.8993 0.227173L17.7124 0.227173C18.0917 0.227173 18.4554 0.377827 18.7236 0.645994C18.9917 0.914161 19.1424 1.27787 19.1424 1.65712V30.7327H12.4693ZM24.3855 30.7327V16.9099C24.3855 16.5306 24.5362 16.1669 24.8043 15.8987C25.0725 15.6306 25.4362 15.4799 25.8155 15.4799H29.6287C30.0079 15.4799 30.3716 15.6306 30.6398 15.8987C30.9079 16.1669 31.0586 16.5306 31.0586 16.9099V30.7327H24.3855Z" fill="#493577"/>
</svg>
