<svg width="32" height="31" viewBox="0 0 32 31" fill="none" xmlns="http://www.w3.org/2000/svg">
<path d="M0.553223 30.7326V11.19C0.553223 10.8108 0.703877 10.4471 0.972044 10.1789C1.24021 9.91073 1.60392 9.76008 1.98317 9.76008H5.79635C6.1756 9.76008 6.53931 9.91073 6.80748 10.1789C7.07565 10.4471 7.2263 10.8108 7.2263 11.19V30.7326H0.553223ZM12.4694 30.7326V1.65706C12.4694 1.27781 12.6201 0.9141 12.8883 0.645933C13.1564 0.377766 13.5201 0.227112 13.8994 0.227112L17.7126 0.227112C18.0918 0.227112 18.4555 0.377766 18.7237 0.645933C18.9919 0.9141 19.1425 1.27781 19.1425 1.65706V30.7326H12.4694ZM24.3856 30.7326V16.9098C24.3856 16.5306 24.5363 16.1668 24.8045 15.8987C25.0726 15.6305 25.4363 15.4799 25.8156 15.4799H29.6288C30.008 15.4799 30.3717 15.6305 30.6399 15.8987C30.9081 16.1668 31.0587 16.5306 31.0587 16.9098V30.7326H24.3856Z" fill="#958BAC"/>
</svg>
