<svg width="45" height="152" viewBox="0 0 45 152" fill="none" xmlns="http://www.w3.org/2000/svg">
<path d="M42.5978 131.201C42.5978 125.757 40.4352 120.536 36.5858 116.687C32.7364 112.837 27.5154 110.675 22.0715 110.675C16.6276 110.675 11.4066 112.837 7.55719 116.687C3.70776 120.536 1.54517 125.757 1.54517 131.201L22.0715 131.201H42.5978Z" stroke="white" stroke-width="2.93233"/>
<rect x="15.7557" y="101.728" width="12.6316" height="8.94738" rx="2.10526" stroke="white" stroke-width="2.93233"/>
<path d="M22.0001 100.591L22.0001 1.72757" stroke="white" stroke-width="3.40909" stroke-linecap="round"/>
<path d="M24.1841 134.682C24.6821 135.615 24.9645 136.68 24.9645 137.811C24.9645 141.486 21.9857 144.465 18.3111 144.465C17.1799 144.465 16.1145 144.182 15.1818 143.684C15.9569 146.992 18.9256 149.455 22.4695 149.455C26.6033 149.455 29.9545 146.104 29.9545 141.97C29.9545 138.426 27.4916 135.457 24.1841 134.682Z" fill="white"/>
</svg>
