<svg width="45" height="152" viewBox="0 0 45 152" fill="none" xmlns="http://www.w3.org/2000/svg">
<path d="M42.5978 131.201C42.5978 125.757 40.4352 120.536 36.5858 116.687C32.7364 112.837 27.5154 110.675 22.0715 110.675C16.6276 110.675 11.4066 112.837 7.55719 116.687C3.70776 120.536 1.54517 125.757 1.54517 131.201L22.0715 131.201H42.5978Z" stroke="#272525" stroke-width="2.93233"/>
<rect x="15.7557" y="101.727" width="12.6316" height="8.94738" rx="2.10526" stroke="#272525" stroke-width="2.93233"/>
<path d="M22.0001 100.591L22.0001 1.72754" stroke="#272525" stroke-width="3.40909" stroke-linecap="round"/>
<path d="M24.1841 125.305C24.6821 126.691 24.9645 128.273 24.9645 129.954C24.9645 135.412 21.9857 139.836 18.3111 139.836C17.1799 139.836 16.1145 139.417 15.1818 138.677C15.9569 143.59 18.9256 147.249 22.4695 147.249C26.6033 147.249 29.9545 142.271 29.9545 136.13C29.9545 130.866 27.4916 126.457 24.1841 125.305Z" fill="#272525"/>
</svg>
