<svg width="32" height="31" viewBox="0 0 32 31" fill="none" xmlns="http://www.w3.org/2000/svg">
<path d="M10.0861 5.03388C10.0861 6.00536 9.79543 6.90899 9.29636 7.6625L13.1772 11.5434C13.9307 11.0443 14.8344 10.7537 15.8058 10.7537C16.7773 10.7537 17.681 11.0443 18.4345 11.5434L22.3153 7.6625C21.8162 6.90899 21.5256 6.00536 21.5256 5.03388C21.5256 2.40143 23.6597 0.267395 26.2921 0.267395C28.9245 0.267395 31.0586 2.40143 31.0586 5.03388C31.0586 7.66633 28.9245 9.80036 26.2921 9.80036C25.3207 9.80036 24.417 9.50972 23.6635 9.01067L19.7826 12.8916C20.2818 13.6451 20.5723 14.5487 20.5723 15.5201C20.5723 16.4916 20.2818 17.3953 19.7826 18.1488L23.6635 22.0296C24.417 21.5305 25.3207 21.2399 26.2921 21.2399C28.9245 21.2399 31.0586 23.374 31.0586 26.0064C31.0586 28.6388 28.9245 30.7729 26.2921 30.7729C23.6597 30.7729 21.5256 28.6388 21.5256 26.0064C21.5256 25.035 21.8162 24.1313 22.3153 23.3778L18.4345 19.4969C17.681 19.9961 16.7773 20.2866 15.8058 20.2866C14.8344 20.2866 13.9308 19.9961 13.1772 19.4969L9.29638 23.3778C9.79543 24.1313 10.0861 25.035 10.0861 26.0064C10.0861 28.6388 7.95204 30.7729 5.31958 30.7729C2.68713 30.7729 0.553101 28.6388 0.553101 26.0064C0.553101 23.374 2.68713 21.2399 5.31958 21.2399C6.29107 21.2399 7.1947 21.5305 7.9482 22.0296L11.8291 18.1488C11.33 17.3953 11.0394 16.4916 11.0394 15.5201C11.0394 14.5487 11.33 13.6451 11.8291 12.8915L7.94819 9.01067C7.19466 9.50972 6.29107 9.80036 5.31958 9.80036C2.68713 9.80036 0.553101 7.66633 0.553101 5.03388C0.553101 2.40143 2.68713 0.267395 5.31958 0.267395C7.95204 0.267395 10.0861 2.40143 10.0861 5.03388Z" fill="#493577"/>
</svg>
