<svg width="32" height="31" viewBox="0 0 32 31" fill="none" xmlns="http://www.w3.org/2000/svg">
<path d="M10.0862 5.03388C10.0862 6.00536 9.79555 6.90899 9.29648 7.6625L13.1773 11.5434C13.9309 11.0443 14.8345 10.7537 15.806 10.7537C16.7774 10.7537 17.6811 11.0443 18.4346 11.5434L22.3155 7.6625C21.8163 6.90899 21.5258 6.00536 21.5258 5.03388C21.5258 2.40143 23.6598 0.267395 26.2922 0.267395C28.9247 0.267395 31.0587 2.40143 31.0587 5.03388C31.0587 7.66633 28.9247 9.80036 26.2922 9.80036C25.3208 9.80036 24.4171 9.50972 23.6636 9.01067L19.7827 12.8916C20.2819 13.6451 20.5725 14.5487 20.5725 15.5201C20.5725 16.4916 20.2819 17.3953 19.7827 18.1488L23.6636 22.0296C24.4171 21.5305 25.3208 21.2399 26.2922 21.2399C28.9247 21.2399 31.0587 23.374 31.0587 26.0064C31.0587 28.6388 28.9247 30.7729 26.2922 30.7729C23.6598 30.7729 21.5258 28.6388 21.5258 26.0064C21.5258 25.035 21.8163 24.1313 22.3155 23.3778L18.4346 19.4969C17.6811 19.9961 16.7774 20.2866 15.806 20.2866C14.8345 20.2866 13.9309 19.9961 13.1774 19.4969L9.2965 23.3778C9.79555 24.1313 10.0862 25.035 10.0862 26.0064C10.0862 28.6388 7.95216 30.7729 5.31971 30.7729C2.68725 30.7729 0.553223 28.6388 0.553223 26.0064C0.553223 23.374 2.68725 21.2399 5.31971 21.2399C6.29119 21.2399 7.19482 21.5305 7.94833 22.0296L11.8292 18.1488C11.3301 17.3953 11.0395 16.4916 11.0395 15.5201C11.0395 14.5487 11.3301 13.6451 11.8292 12.8915L7.94831 9.01067C7.19478 9.50972 6.29119 9.80036 5.31971 9.80036C2.68725 9.80036 0.553223 7.66633 0.553223 5.03388C0.553223 2.40143 2.68725 0.267395 5.31971 0.267395C7.95216 0.267395 10.0862 2.40143 10.0862 5.03388Z" fill="#958BAC"/>
</svg>
