<svg width="32" height="32" viewBox="0 0 32 32" fill="none" xmlns="http://www.w3.org/2000/svg">
<path d="M9.14023 4.62634L22.4944 4.62849C25.0415 4.62963 27.1216 6.62794 27.2537 9.14247L27.2605 9.39558V15.1059C27.2605 15.6323 26.8337 16.0592 26.3072 16.0592C25.8246 16.0592 25.4257 15.7006 25.3625 15.2353L25.3539 15.1059V9.39586C25.3535 7.88217 24.1775 6.64302 22.6896 6.54177L22.4939 6.53508L9.13935 6.53294C7.64245 6.53179 6.41376 7.68198 6.28986 9.14735L6.27989 9.34905L6.2832 22.7411C6.28395 24.2548 7.46005 25.4938 8.94798 25.5949L9.14376 25.6015H14.8589C15.3853 25.6015 15.8122 26.0284 15.8122 26.5548C15.8122 27.0375 15.4536 27.4363 14.9882 27.4994L14.8589 27.5081H9.14346C6.59647 27.5074 4.51608 25.5094 4.38333 22.995L4.37661 22.7418L4.37427 9.39618L4.37963 9.13761C4.50726 6.70639 6.45655 4.75818 8.88714 4.63276L9.14023 4.62634ZM13.1994 12.255L20.8965 12.2542C21.5984 12.2542 22.1676 12.8233 22.1676 13.5253C22.1676 14.1771 21.6768 14.7144 21.0447 14.7879L20.8965 14.7964L16.3464 14.7961L24.6641 23.1111C25.1223 23.5692 25.1578 24.2902 24.7701 24.7889L24.6645 24.9087C24.2064 25.3669 23.4853 25.4024 22.9867 25.0147L22.8668 24.9091L14.544 16.5896L14.5443 21.1532C14.5443 21.805 14.0536 22.3423 13.4214 22.4157L13.2732 22.4243C12.6214 22.4243 12.0841 21.9336 12.0107 21.3014L12.0022 21.1532V13.5253L12.0066 13.4186L12.0263 13.2844L12.0377 13.2263L12.0619 13.1428L12.1081 13.0169L12.1891 12.8622C12.2419 12.7757 12.3046 12.6964 12.3755 12.6255L12.5145 12.505L12.6692 12.4059L12.7987 12.3449L12.9114 12.3056L13.0528 12.2723L13.1994 12.255Z" fill="#958BAC"/>
</svg>
