<svg width="26" height="20" viewBox="0 0 26 20" fill="none" xmlns="http://www.w3.org/2000/svg">
<path fill-rule="evenodd" clip-rule="evenodd" d="M22.75 1.875C22.75 0.977537 23.4775 0.25 24.375 0.25C25.2725 0.25 26 0.977537 26 1.875V18.125C26 19.0225 25.2725 19.75 24.375 19.75C23.4775 19.75 22.75 19.0225 22.75 18.125V1.875ZM0.475952 8.85095L7.46301 1.86389C8.0982 1.2287 9.12805 1.2287 9.76323 1.86389C10.3984 2.49908 10.3984 3.52893 9.76323 4.16412L5.55235 8.375H16.25C17.1475 8.375 17.875 9.10254 17.875 10C17.875 10.8975 17.1475 11.625 16.25 11.625H5.55235L9.76323 15.8359C10.3984 16.4711 10.3984 17.5009 9.76323 18.1361C9.12805 18.7713 8.0982 18.7713 7.46301 18.1361L0.475952 11.149C-0.158651 10.5144 -0.158651 9.48555 0.475952 8.85095Z" fill="#958BAC"/>
</svg>
