<svg width="187" height="58" viewBox="0 0 187 58" fill="none" xmlns="http://www.w3.org/2000/svg">
<path d="M79.8076 24.5688V47.9477H75.5895V36.2465C75.5664 32.4087 72.5389 29.3544 68.7407 29.3544C64.9425 29.3544 61.915 32.4087 61.915 36.2465V47.9477H57.6738V24.5688C57.6738 18.4086 62.6626 13.3884 68.7407 13.3884C74.8187 13.3884 79.8076 18.4086 79.8076 24.5688ZM61.9104 24.5688V27.4824C63.798 25.9669 66.1747 25.0661 68.7361 25.0661C71.2974 25.0661 73.6973 25.9669 75.5848 27.4824V24.5688C75.5848 20.731 72.5343 17.6532 68.7361 17.6532C64.9379 17.6532 61.9104 20.731 61.9104 24.5688Z" fill="#04111D"/>
<path d="M93.6994 47.9526C87.5936 47.9526 82.6093 42.8573 82.6093 36.6548C82.6093 30.4524 87.5982 25.3806 93.6994 25.3806C96.2884 25.3806 98.6606 26.2814 100.548 27.7968V15.9314H104.812V36.6595C104.812 42.8667 99.8005 47.9572 93.6994 47.9572V47.9526ZM93.6994 43.6174C97.5206 43.6174 100.548 40.5396 100.548 36.6548C100.548 32.7701 97.5206 29.6923 93.6994 29.6923C89.8781 29.6923 86.8506 32.7935 86.8506 36.6548C86.8506 40.5161 89.9012 43.6174 93.6994 43.6174ZM100.853 28.0314C100.853 28.0314 100.807 28.008 100.783 27.9845C100.807 28.008 100.83 28.0314 100.853 28.0314ZM101.06 28.2426C101.06 28.2426 101.037 28.1956 101.014 28.1722C101.037 28.1956 101.06 28.2191 101.06 28.2426ZM102.131 29.3545C102.131 29.3545 102.108 29.331 102.108 29.3076C102.108 29.331 102.131 29.331 102.131 29.3545Z" fill="#04111D"/>
<path d="M129.822 36.5562V46.0101C129.822 52.2173 124.81 57.3078 118.708 57.3078C116.004 57.3078 113.512 56.2897 111.578 54.6288L114.583 51.598C115.722 52.4753 117.144 52.9727 118.708 52.9727C122.53 52.9727 125.557 49.8949 125.557 46.0101V45.4189C123.67 46.9344 121.293 47.8587 118.708 47.8587C112.603 47.8587 107.618 42.7634 107.618 36.5609C107.618 30.3585 112.603 25.2867 118.708 25.2867C124.814 25.2867 129.822 30.3538 129.822 36.5609V36.5562ZM111.481 36.6032C111.481 40.4879 114.532 43.5892 118.33 43.5892C122.128 43.5892 125.179 40.4879 125.179 36.6032C125.179 32.7184 122.151 29.6406 118.33 29.6406C114.509 29.6406 111.481 32.7419 111.481 36.6032Z" fill="#04111D"/>
<path d="M150.561 47.9521V45.5124C148.674 47.0278 146.297 47.9521 143.712 47.9521C137.676 47.9521 132.738 42.9789 132.618 36.8655V25.3755H136.859V36.6731C136.882 40.5344 139.914 43.6122 143.712 43.6122C147.511 43.6122 150.561 40.5344 150.561 36.6497V25.3755H154.825V47.9521H150.561Z" fill="#04111D"/>
<path d="M161.868 15.9267V20.2384H157.626V15.9267H161.868ZM161.868 25.3805V47.9572H157.626V25.3805H161.868Z" fill="#04111D"/>
<path d="M168.907 25.3755V27.7917C170.794 26.2763 173.194 25.3755 175.755 25.3755C181.792 25.3755 186.753 30.3487 186.845 36.462H186.868V47.9521H182.604V36.6309C182.604 32.7696 179.577 29.6918 175.755 29.6918C171.934 29.6918 168.907 32.7931 168.907 36.6544V47.9521H164.665V25.3755H168.907Z" fill="#04111D"/>
<g clip-path="url(#clip0_299_1180)">
<path d="M36.199 16.6923V38.1028C36.199 46.5087 29.3841 53.3237 20.9782 53.3237C14.6419 53.3237 9.20907 49.4513 6.91806 43.9452C6.16961 42.1467 5.75595 40.1724 5.75595 38.1028V16.6923C5.75595 8.28635 12.5709 1.47141 20.9768 1.47141C23.0783 1.47141 25.0801 1.89751 26.9022 2.6681C29.6705 3.83851 32.0196 5.8058 33.6645 8.28082C35.2652 10.6908 36.199 13.5836 36.199 16.6937V16.6923Z" stroke="#231D4E" stroke-width="2.00682" stroke-miterlimit="10"/>
<path d="M34.8266 14.1218V35.5323C34.8266 43.9382 28.0117 50.7532 19.6058 50.7532C14.3099 50.7532 9.64486 48.0485 6.91806 43.9438C6.16961 42.1453 5.75595 40.1711 5.75595 38.1014V16.6923C5.75595 8.28635 12.5709 1.47141 20.9768 1.47141C23.0783 1.47141 25.0801 1.89751 26.9022 2.6681C29.6705 3.83851 32.0196 5.8058 33.6645 8.28082C34.413 10.0793 34.8266 12.0535 34.8266 14.1232V14.1218Z" stroke="#231D4E" stroke-width="2.00682" stroke-miterlimit="10"/>
<path d="M36.199 16.6923V38.1028C36.199 46.5087 29.3841 53.3237 20.9782 53.3237C14.6419 53.3237 9.20907 49.4513 6.91806 43.9452C6.16961 42.1467 5.75595 40.1724 5.75595 38.1028V16.6923C5.75595 8.28635 12.5709 1.47141 20.9768 1.47141C23.0783 1.47141 25.0801 1.89751 26.9022 2.6681C29.6705 3.83851 32.0196 5.8058 33.6645 8.28082C35.2652 10.6908 36.199 13.5836 36.199 16.6937V16.6923Z" fill="#8B68CE"/>
<path d="M34.8266 14.1218V35.5323C34.8266 43.9382 28.0117 50.7532 19.6058 50.7532C14.3099 50.7532 9.64486 48.0485 6.91806 43.9438C6.16961 42.1453 5.75595 40.1711 5.75595 38.1014V16.6923C5.75595 8.28635 12.5709 1.47141 20.9768 1.47141C23.0783 1.47141 25.0801 1.89751 26.9022 2.6681C29.6705 3.83851 32.0196 5.8058 33.6645 8.28082C34.413 10.0793 34.8266 12.0535 34.8266 14.1232V14.1218Z" fill="#D4B5EF"/>
<path d="M36.199 16.6922V26.1745C36.199 19.8701 32.3655 14.4593 26.9022 12.1489C25.0815 11.3783 23.0783 10.9522 20.9768 10.9522C12.5709 10.9522 5.75595 17.7672 5.75595 26.1731V16.6908C5.75595 8.28492 12.5709 1.46997 20.9768 1.46997C23.0783 1.46997 25.0801 1.89608 26.9022 2.66667C32.3655 4.97705 36.199 10.3864 36.199 16.6922Z" fill="#7808FF"/>
<path d="M1.01082 11.6717C2.98502 9.77911 5.63989 8.72491 8.3321 8.2407C11.0229 7.75787 13.7774 7.80491 16.5111 7.85333C17.8932 8.86326 19.2172 10.0115 20.7445 10.7821C21.3588 11.092 22.0616 10.7807 22.6371 10.4017C23.7619 9.6629 24.8368 8.85081 25.8564 7.97231C31.1966 7.39955 36.4482 8.49664 41.2253 10.9537C41.318 11.0007 41.3263 11.8142 41.3387 11.9387C41.3719 12.2666 41.3996 12.5958 41.4231 12.9251C41.5366 14.4926 41.549 16.0656 41.4937 17.6358C41.466 18.423 41.4204 19.2088 41.3622 19.9932C41.3097 20.6947 41.2875 21.4528 41.1091 22.1335C41.051 22.352 40.9569 22.5941 40.8006 22.7629C40.6802 22.8916 40.5197 22.9386 40.3731 23.0341C39.9359 23.3191 39.5112 23.6221 39.0685 23.8974C38.1844 24.448 37.2713 24.953 36.3334 25.4067C34.6538 26.2174 32.7654 26.6989 30.9185 26.4416C28.5555 26.1123 26.5315 24.6403 24.6265 23.2043C23.8532 22.6218 22.6703 22.637 21.7199 22.4544C20.7694 22.2718 19.765 22.2621 18.8533 22.5858C17.9582 22.904 17.2029 23.5197 16.4931 24.1519C14.6407 25.8038 12.055 26.5467 9.57168 26.555C7.08975 26.5619 4.61336 25.6848 2.69035 24.1146C1.66658 23.279 0.761801 22.175 0.597169 20.8648C0.204266 17.7506 0.709229 14.79 1.01221 11.6662L1.01082 11.6717Z" fill="#7808FF"/>
<path d="M9.29913 23.0313C12.5242 23.0313 15.1387 20.4168 15.1387 17.1917C15.1387 13.9666 12.5242 11.3521 9.29913 11.3521C6.07401 11.3521 3.45953 13.9666 3.45953 17.1917C3.45953 20.4168 6.07401 23.0313 9.29913 23.0313Z" fill="#2B2452"/>
<path d="M9.29913 22.9566C12.5242 22.9566 15.1387 20.3421 15.1387 17.117C15.1387 13.8919 12.5242 11.2774 9.29913 11.2774C6.07401 11.2774 3.45953 13.8919 3.45953 17.117C3.45953 20.3421 6.07401 22.9566 9.29913 22.9566Z" stroke="#8D6DD8" stroke-width="0.446373" stroke-miterlimit="10"/>
<path d="M32.5315 23.0313C35.7567 23.0313 38.3711 20.4168 38.3711 17.1917C38.3711 13.9666 35.7567 11.3521 32.5315 11.3521C29.3064 11.3521 26.692 13.9666 26.692 17.1917C26.692 20.4168 29.3064 23.0313 32.5315 23.0313Z" fill="#2B2452"/>
<path d="M32.5315 22.9566C35.7567 22.9566 38.3711 20.3421 38.3711 17.117C38.3711 13.8919 35.7567 11.2774 32.5315 11.2774C29.3064 11.2774 26.692 13.8919 26.692 17.117C26.692 20.3421 29.3064 22.9566 32.5315 22.9566Z" stroke="#8D6DD8" stroke-width="0.446373" stroke-miterlimit="10"/>
<path d="M1.01062 11.597C2.98482 9.70447 5.63968 8.65027 8.3319 8.16605C11.0227 7.68322 13.7772 7.73026 16.5109 7.77868C17.893 8.78861 19.217 9.93689 20.7443 10.7075C21.3586 11.0174 22.0614 10.7061 22.6369 10.327C23.7616 9.58825 24.8366 8.77616 25.8562 7.89766C31.1964 7.32491 36.448 8.42199 41.2251 10.879C41.3261 10.9316 41.3344 11.8212 41.3468 11.9567C41.3828 12.3317 41.4132 12.708 41.4381 13.0843C41.5419 14.6504 41.546 16.2234 41.4838 17.7922C41.452 18.578 41.4049 19.3638 41.3441 20.1469C41.2901 20.8344 41.3192 21.6507 41.0466 22.2968C40.8723 22.7104 40.5209 22.8598 40.1737 23.0992C39.7655 23.38 39.3505 23.6498 38.9299 23.9099C38.0888 24.4273 37.2213 24.9032 36.3318 25.3335C34.6523 26.1442 32.7638 26.6256 30.9169 26.3683C28.554 26.039 26.53 24.567 24.6249 23.131C23.8516 22.5486 22.6687 22.5638 21.7183 22.3812C20.7678 22.1985 19.7634 22.1889 18.8517 22.5126C17.9566 22.8308 17.2013 23.4464 16.4916 24.0787C14.6391 25.7305 12.0534 26.4734 9.5701 26.4817C7.08817 26.4887 4.61177 25.6115 2.68876 24.0413C1.665 23.2057 0.760214 22.1017 0.595582 20.7916C0.202679 17.6774 0.707642 14.7168 1.01062 11.5929V11.597Z" stroke="#D2B3ED" stroke-width="0.668941" stroke-miterlimit="10"/>
<path d="M17.6246 22.4696C17.8031 22.3479 18.0065 22.2649 18.1822 22.139C19.0537 21.5164 18.9735 20.1302 19.7358 19.3776C20.303 18.8186 21.3033 18.7799 21.912 19.2932C22.6826 19.9434 22.7338 21.1954 23.5334 21.8097C23.8405 22.0449 24.2265 22.1583 24.5419 22.3825C24.8574 22.6066 25.1009 23.0271 24.9335 23.3758C24.8186 23.6137 24.553 23.7355 24.3081 23.8365C23.6095 24.127 22.9108 24.4189 22.2136 24.7094C21.8041 24.881 21.3793 25.0539 20.9366 25.0512C20.469 25.0484 20.0263 24.8492 19.6057 24.6444C18.9528 24.3262 18.2942 23.997 17.6537 23.6539C17.1515 23.3855 17.1501 22.7906 17.6246 22.4682V22.4696Z" stroke="#231D4E" stroke-width="1.11531" stroke-miterlimit="10"/>
<path d="M17.6246 22.4696C17.8031 22.3479 18.0065 22.2649 18.1822 22.139C19.0537 21.5164 18.9735 20.1302 19.7358 19.3776C20.303 18.8186 21.3033 18.7799 21.912 19.2932C22.6826 19.9434 22.7338 21.1954 23.5334 21.8097C23.8405 22.0449 24.2265 22.1583 24.5419 22.3825C24.8574 22.6066 25.1009 23.0271 24.9335 23.3758C24.8186 23.6137 24.553 23.7355 24.3081 23.8365C23.6095 24.127 22.9108 24.4189 22.2136 24.7094C21.8041 24.881 21.3793 25.0539 20.9366 25.0512C20.469 25.0484 20.0263 24.8492 19.6057 24.6444C18.9528 24.3262 18.2942 23.997 17.6537 23.6539C17.1515 23.3855 17.1501 22.7906 17.6246 22.4682V22.4696Z" fill="#F6B31B"/>
<path d="M8.37488 18.1311H11.4462" stroke="#F6B31B" stroke-width="0.668941" stroke-linecap="round" stroke-linejoin="round"/>
<path d="M29.4602 18.1559H32.5315" stroke="#F6B31B" stroke-width="0.668941" stroke-linecap="round" stroke-linejoin="round"/>
<path d="M5.62734 28.1432C4.01699 30.6182 2.40803 33.1486 1.40225 36.0525C0.396472 38.955 0.0464565 42.3182 1.00381 45.2442C1.1892 45.8114 1.49356 46.4243 1.99299 46.5225C2.65705 46.654 3.15094 45.8253 3.46914 45.1086C4.4182 42.9684 5.36863 40.8282 6.31769 38.6866C7.68178 35.6112 6.17934 31.5673 5.62734 28.1432Z" fill="#231D4E"/>
<path d="M36.199 28.1432C37.8093 30.6182 39.4183 33.1486 40.4241 36.0525C41.4298 38.955 41.7799 42.3182 40.8225 45.2442C40.6371 45.8114 40.3328 46.4243 39.8333 46.5225C39.1693 46.654 38.6754 45.8253 38.3572 45.1086C37.4081 42.9684 36.4577 40.8282 35.5086 38.6866C34.1445 35.6112 35.647 31.5673 36.199 28.1432Z" fill="#231D4E"/>
<path d="M16.2854 53.8314C16.1346 53.4634 15.8759 53.1231 15.5134 52.9584C15.0818 52.762 14.5741 52.8394 14.1217 52.9819C13.6458 53.1314 13.192 53.3444 12.7119 53.4841C12.3522 53.5893 11.9704 53.6502 11.601 53.6073C11.4073 53.5851 11.233 53.7249 11.2275 53.9199L11.1956 54.9935C12.3467 54.9783 13.4977 54.9617 14.6474 54.9465C14.9656 54.9423 16.089 55.1097 16.3241 54.9243C16.6271 54.685 16.4431 54.2188 16.2854 53.8328V53.8314Z" stroke="#231D4D" stroke-width="0.668941" stroke-miterlimit="10"/>
<path d="M16.2858 53.8313C16.135 53.4633 15.8763 53.123 15.5138 52.9584C15.0822 52.7619 14.5745 52.8394 14.1221 52.9819C13.6462 53.1313 13.1924 53.3443 12.7123 53.4841C12.372 53.5837 12.0109 53.6432 11.6609 53.6127C11.4313 53.5934 11.2334 53.7691 11.2265 53.9987L11.1974 54.9921C12.3485 54.9768 13.4995 54.9602 14.6492 54.945C14.9674 54.9409 16.0908 55.1083 16.3259 54.9229C16.6289 54.6835 16.4449 54.2173 16.2872 53.8313H16.2858Z" fill="#DFA61E"/>
<path d="M26.021 53.8314C26.1718 53.4634 26.4305 53.1231 26.793 52.9584C27.2246 52.762 27.7323 52.8394 28.1847 52.9819C28.6606 53.1314 29.1144 53.3444 29.5945 53.4841C30.0247 53.61 30.4882 53.6723 30.9212 53.5685C30.9973 53.5505 31.0706 53.6073 31.072 53.6861L31.1107 54.9935C29.9597 54.9783 28.8087 54.9617 27.659 54.9465C27.3408 54.9423 26.2174 55.1097 25.9822 54.9243C25.6793 54.685 25.8633 54.2188 26.021 53.8328V53.8314Z" stroke="#231D4D" stroke-width="0.668941" stroke-miterlimit="10"/>
<path d="M26.021 53.8314C26.1718 53.4634 26.4305 53.1231 26.793 52.9584C27.2246 52.762 27.7323 52.8394 28.1847 52.9819C28.6606 53.1314 29.1144 53.3444 29.5945 53.4841C29.9154 53.5782 30.2558 53.6363 30.5878 53.6169C30.8493 53.6017 31.0748 53.7954 31.0831 54.0569L31.1107 54.9921C29.9597 54.9769 28.8087 54.9603 27.659 54.9451C27.3408 54.9409 26.2174 55.1083 25.9822 54.9229C25.6793 54.6836 25.8633 54.2174 26.021 53.8314Z" fill="#DFA61E"/>
<path d="M2.46604 37.1011C1.90712 38.9812 1.49347 41.0204 2.12433 42.877C2.1935 43.079 2.30971 43.3073 2.52138 43.3336C2.77179 43.364 2.94472 43.0956 3.04986 42.8659C3.86334 41.1006 4.68788 39.2952 4.88295 37.3611C4.93414 36.852 4.86635 32.3309 4.23411 32.4263C3.91038 32.4747 3.39019 34.359 3.26845 34.6869C2.97516 35.4824 2.70676 36.289 2.46604 37.1024V37.1011Z" fill="#D4B5EF"/>
<path d="M39.2482 37.1011C39.8071 38.9812 40.2207 41.0204 39.5899 42.877C39.5207 43.079 39.4045 43.3073 39.1928 43.3336C38.9424 43.364 38.7695 43.0956 38.6643 42.8659C37.8509 41.1006 37.0263 39.2952 36.8312 37.3611C36.7801 36.852 36.8478 32.3309 37.4801 32.4263C37.8038 32.4747 38.324 34.359 38.4457 34.6869C38.739 35.4824 39.0074 36.289 39.2482 37.1024V37.1011Z" fill="#D4B5EF"/>
</g>
<defs>
<clipPath id="clip0_299_1180">
<rect width="41.8234" height="55.037" fill="white" transform="translate(0.0769043 0.348022)"/>
</clipPath>
</defs>
</svg>
