<svg width="187" height="56" viewBox="0 0 187 56" fill="none" xmlns="http://www.w3.org/2000/svg">
<path d="M79.8077 22.8676V45.8698H75.5895V34.3571C75.5664 30.5811 72.539 27.576 68.7408 27.576C64.9426 27.576 61.9151 30.5811 61.9151 34.3571V45.8698H57.6738V22.8676C57.6738 16.8066 62.6627 11.8673 68.7408 11.8673C74.8188 11.8673 79.8077 16.8066 79.8077 22.8676ZM61.9105 22.8676V25.7342C63.798 24.2432 66.1748 23.3569 68.7361 23.3569C71.2975 23.3569 73.6973 24.2432 75.5849 25.7342V22.8676C75.5849 19.0916 72.5343 16.0634 68.7361 16.0634C64.9379 16.0634 61.9105 19.0916 61.9105 22.8676Z" fill="white"/>
<path d="M93.6994 45.8745C87.5937 45.8745 82.6094 40.8614 82.6094 34.7589C82.6094 28.6564 87.5983 23.6663 93.6994 23.6663C96.2885 23.6663 98.6606 24.5526 100.548 26.0436V14.3694H104.812V34.7635C104.812 40.8706 99.8005 45.8792 93.6994 45.8792V45.8745ZM93.6994 41.6092C97.5207 41.6092 100.548 38.581 100.548 34.7589C100.548 30.9367 97.5207 27.9085 93.6994 27.9085C89.8781 27.9085 86.8506 30.9598 86.8506 34.7589C86.8506 38.558 89.9012 41.6092 93.6994 41.6092ZM100.853 26.2744C100.853 26.2744 100.807 26.2514 100.784 26.2283C100.807 26.2514 100.83 26.2744 100.853 26.2744ZM101.06 26.4822C101.06 26.4822 101.037 26.436 101.014 26.4129C101.037 26.436 101.06 26.4591 101.06 26.4822ZM102.131 27.5762C102.131 27.5762 102.108 27.5531 102.108 27.53C102.108 27.5531 102.131 27.5531 102.131 27.5762Z" fill="white"/>
<path d="M129.822 34.6619V43.9634C129.822 50.0705 124.81 55.079 118.709 55.079C116.004 55.079 113.512 54.0773 111.578 52.4432L114.583 49.4612C115.723 50.3244 117.144 50.8137 118.709 50.8137C122.53 50.8137 125.557 47.7855 125.557 43.9634V43.3818C123.67 44.8728 121.293 45.7821 118.709 45.7821C112.603 45.7821 107.619 40.769 107.619 34.6665C107.619 28.564 112.603 23.5739 118.709 23.5739C124.814 23.5739 129.822 28.5594 129.822 34.6665V34.6619ZM111.481 34.7081C111.481 38.5302 114.532 41.5815 118.33 41.5815C122.128 41.5815 125.179 38.5302 125.179 34.7081C125.179 30.8859 122.152 27.8577 118.33 27.8577C114.509 27.8577 111.481 30.909 111.481 34.7081Z" fill="white"/>
<path d="M150.561 45.8741V43.4737C148.673 44.9647 146.297 45.8741 143.712 45.8741C137.676 45.8741 132.738 40.981 132.618 34.9662V23.6613H136.859V34.7769C136.882 38.576 139.914 41.6042 143.712 41.6042C147.51 41.6042 150.561 38.576 150.561 34.7538V23.6613H154.825V45.8741H150.561Z" fill="white"/>
<path d="M161.868 14.3647V18.6069H157.626V14.3647H161.868ZM161.868 23.6662V45.8791H157.626V23.6662H161.868Z" fill="white"/>
<path d="M168.907 23.6613V26.0386C170.794 24.5476 173.194 23.6613 175.755 23.6613C181.792 23.6613 186.753 28.5544 186.845 34.5692H186.868V45.8741H182.604V34.7354C182.604 30.9363 179.577 27.9081 175.755 27.9081C171.934 27.9081 168.907 30.9594 168.907 34.7585V45.8741H164.665V23.6613H168.907Z" fill="white"/>
<g clip-path="url(#clip0_440_1283)">
<path d="M36.1992 16.6923V38.1028C36.1992 46.5087 29.3842 53.3236 20.9783 53.3236C14.6421 53.3236 9.20922 49.4513 6.91821 43.9451C6.16976 42.1466 5.7561 40.1724 5.7561 38.1028V16.6923C5.7561 8.28632 12.571 1.47137 20.9769 1.47137C23.0784 1.47137 25.0803 1.89748 26.9023 2.66807C29.6706 3.83848 32.0197 5.80577 33.6647 8.28079C35.2653 10.6908 36.1992 13.5836 36.1992 16.6936V16.6923Z" stroke="#231D4E" stroke-width="2.00682" stroke-miterlimit="10"/>
<path d="M34.8268 14.1218V35.5323C34.8268 43.9382 28.0119 50.7532 19.6059 50.7532C14.31 50.7532 9.64501 48.0485 6.91821 43.9437C6.16976 42.1452 5.7561 40.171 5.7561 38.1014V16.6923C5.7561 8.28632 12.571 1.47137 20.9769 1.47137C23.0784 1.47137 25.0803 1.89748 26.9023 2.66807C29.6706 3.83848 32.0197 5.80577 33.6647 8.28079C34.4131 10.0793 34.8268 12.0535 34.8268 14.1232V14.1218Z" stroke="#231D4E" stroke-width="2.00682" stroke-miterlimit="10"/>
<path d="M36.1992 16.6923V38.1028C36.1992 46.5087 29.3842 53.3236 20.9783 53.3236C14.6421 53.3236 9.20922 49.4513 6.91821 43.9451C6.16976 42.1466 5.7561 40.1724 5.7561 38.1028V16.6923C5.7561 8.28632 12.571 1.47137 20.9769 1.47137C23.0784 1.47137 25.0803 1.89748 26.9023 2.66807C29.6706 3.83848 32.0197 5.80577 33.6647 8.28079C35.2653 10.6908 36.1992 13.5836 36.1992 16.6936V16.6923Z" fill="#8B68CE"/>
<path d="M34.8268 14.1218V35.5323C34.8268 43.9382 28.0119 50.7532 19.6059 50.7532C14.31 50.7532 9.64501 48.0485 6.91821 43.9437C6.16976 42.1452 5.7561 40.171 5.7561 38.1014V16.6923C5.7561 8.28632 12.571 1.47137 20.9769 1.47137C23.0784 1.47137 25.0803 1.89748 26.9023 2.66807C29.6706 3.83848 32.0197 5.80577 33.6647 8.28079C34.4131 10.0793 34.8268 12.0535 34.8268 14.1232V14.1218Z" fill="#D4B5EF"/>
<path d="M36.1992 16.6922V26.1745C36.1992 19.87 32.3656 14.4593 26.9023 12.1489C25.0817 11.3783 23.0784 10.9522 20.9769 10.9522C12.571 10.9522 5.7561 17.7672 5.7561 26.1731V16.6908C5.7561 8.28489 12.571 1.46994 20.9769 1.46994C23.0784 1.46994 25.0803 1.89605 26.9023 2.66664C32.3656 4.97702 36.1992 10.3864 36.1992 16.6922Z" fill="#7808FF"/>
<path d="M1.01073 11.6717C2.98493 9.77911 5.63979 8.72491 8.33201 8.2407C11.0228 7.75787 13.7773 7.80491 16.511 7.85333C17.8931 8.86326 19.2171 10.0115 20.7444 10.7821C21.3587 11.092 22.0615 10.7807 22.637 10.4017C23.7618 9.6629 24.8367 8.85081 25.8563 7.97231C31.1965 7.39955 36.4481 8.49664 41.2252 10.9537C41.3179 11.0007 41.3262 11.8142 41.3386 11.9387C41.3718 12.2666 41.3995 12.5958 41.423 12.9251C41.5365 14.4926 41.5489 16.0656 41.4936 17.6358C41.4659 18.423 41.4203 19.2088 41.3622 19.9932C41.3096 20.6947 41.2874 21.4528 41.109 22.1335C41.0509 22.352 40.9568 22.5941 40.8005 22.7629C40.6801 22.8916 40.5196 22.9386 40.373 23.0341C39.9358 23.3191 39.5111 23.6221 39.0684 23.8974C38.1843 24.448 37.2713 24.953 36.3333 25.4067C34.6537 26.2174 32.7653 26.6989 30.9184 26.4416C28.5555 26.1123 26.5314 24.6403 24.6264 23.2043C23.8531 22.6218 22.6702 22.637 21.7198 22.4544C20.7693 22.2718 19.7649 22.2621 18.8532 22.5858C17.9581 22.904 17.2028 23.5197 16.4931 24.1519C14.6406 25.8038 12.0549 26.5467 9.57159 26.555C7.08966 26.5619 4.61327 25.6848 2.69025 24.1146C1.66649 23.279 0.761709 22.175 0.597077 20.8648C0.204174 17.7506 0.709138 14.79 1.01212 11.6662L1.01073 11.6717Z" fill="#7808FF"/>
<path d="M9.29906 23.0313C12.5242 23.0313 15.1387 20.4168 15.1387 17.1917C15.1387 13.9666 12.5242 11.3521 9.29906 11.3521C6.07395 11.3521 3.45947 13.9666 3.45947 17.1917C3.45947 20.4168 6.07395 23.0313 9.29906 23.0313Z" fill="#2B2452"/>
<path d="M9.29906 22.9566C12.5242 22.9566 15.1387 20.3421 15.1387 17.117C15.1387 13.8919 12.5242 11.2774 9.29906 11.2774C6.07395 11.2774 3.45947 13.8919 3.45947 17.117C3.45947 20.3421 6.07395 22.9566 9.29906 22.9566Z" stroke="#8D6DD8" stroke-width="0.446373" stroke-miterlimit="10"/>
<path d="M32.5315 23.0313C35.7566 23.0313 38.3711 20.4168 38.3711 17.1917C38.3711 13.9666 35.7566 11.3521 32.5315 11.3521C29.3064 11.3521 26.6919 13.9666 26.6919 17.1917C26.6919 20.4168 29.3064 23.0313 32.5315 23.0313Z" fill="#2B2452"/>
<path d="M32.5315 22.9566C35.7566 22.9566 38.3711 20.3421 38.3711 17.117C38.3711 13.8919 35.7566 11.2774 32.5315 11.2774C29.3064 11.2774 26.6919 13.8919 26.6919 17.117C26.6919 20.3421 29.3064 22.9566 32.5315 22.9566Z" stroke="#8D6DD8" stroke-width="0.446373" stroke-miterlimit="10"/>
<path d="M1.01065 11.597C2.98485 9.70444 5.63971 8.65023 8.33193 8.16602C11.0228 7.68319 13.7772 7.73023 16.511 7.77865C17.893 8.78858 19.217 9.93686 20.7443 10.7074C21.3586 11.0173 22.0614 10.7061 22.6369 10.327C23.7617 9.58822 24.8366 8.77613 25.8562 7.89763C31.1964 7.32488 36.448 8.42196 41.2251 10.879C41.3261 10.9316 41.3344 11.8211 41.3469 11.9567C41.3828 12.3316 41.4133 12.7079 41.4382 13.0842C41.5419 14.6503 41.5461 16.2233 41.4838 17.7922C41.452 18.578 41.405 19.3638 41.3441 20.1468C41.2901 20.8344 41.3192 21.6507 41.0466 22.2967C40.8723 22.7104 40.5209 22.8598 40.1737 23.0991C39.7656 23.38 39.3505 23.6498 38.93 23.9099C38.0888 24.4273 37.2214 24.9032 36.3318 25.3334C34.6523 26.1442 32.7639 26.6256 30.9169 26.3683C28.554 26.039 26.53 24.567 24.625 23.131C23.8516 22.5485 22.6687 22.5637 21.7183 22.3811C20.7679 22.1985 19.7635 22.1888 18.8518 22.5126C17.9567 22.8308 17.2013 23.4464 16.4916 24.0786C14.6391 25.7305 12.0534 26.4734 9.57013 26.4817C7.0882 26.4886 4.6118 25.6115 2.68879 24.0413C1.66503 23.2057 0.760244 22.1017 0.595613 20.7915C0.202709 17.6773 0.707673 14.7167 1.01065 11.5929V11.597Z" stroke="#D2B3ED" stroke-width="0.668941" stroke-miterlimit="10"/>
<path d="M17.6248 22.4696C17.8032 22.3478 18.0066 22.2648 18.1823 22.1389C19.0539 21.5164 18.9737 20.1301 19.7359 19.3775C20.3032 18.8186 21.3034 18.7799 21.9121 19.2931C22.6827 19.9434 22.7339 21.1954 23.5335 21.8097C23.8407 22.0449 24.2267 22.1583 24.5421 22.3824C24.8575 22.6065 25.101 23.0271 24.9336 23.3757C24.8188 23.6137 24.5532 23.7354 24.3083 23.8364C23.6096 24.127 22.911 24.4189 22.2137 24.7094C21.8042 24.881 21.3795 25.0539 20.9368 25.0511C20.4692 25.0484 20.0265 24.8491 19.6059 24.6444C18.9529 24.3262 18.2944 23.9969 17.6538 23.6538C17.1516 23.3854 17.1503 22.7905 17.6248 22.4682V22.4696Z" stroke="#231D4E" stroke-width="1.11531" stroke-miterlimit="10"/>
<path d="M17.6248 22.4696C17.8032 22.3478 18.0066 22.2648 18.1823 22.1389C19.0539 21.5164 18.9737 20.1301 19.7359 19.3775C20.3032 18.8186 21.3034 18.7799 21.9121 19.2931C22.6827 19.9434 22.7339 21.1954 23.5335 21.8097C23.8407 22.0449 24.2267 22.1583 24.5421 22.3824C24.8575 22.6065 25.101 23.0271 24.9336 23.3757C24.8188 23.6137 24.5532 23.7354 24.3083 23.8364C23.6096 24.127 22.911 24.4189 22.2137 24.7094C21.8042 24.881 21.3795 25.0539 20.9368 25.0511C20.4692 25.0484 20.0265 24.8491 19.6059 24.6444C18.9529 24.3262 18.2944 23.9969 17.6538 23.6538C17.1516 23.3854 17.1503 22.7905 17.6248 22.4682V22.4696Z" fill="#F6B31B"/>
<path d="M8.37476 18.1311H11.446" stroke="#F6B31B" stroke-width="0.668941" stroke-linecap="round" stroke-linejoin="round"/>
<path d="M29.4602 18.1559H32.5315" stroke="#F6B31B" stroke-width="0.668941" stroke-linecap="round" stroke-linejoin="round"/>
<path d="M5.62737 28.1432C4.01702 30.6182 2.40806 33.1485 1.40228 36.0524C0.396503 38.9549 0.0464871 42.3181 1.00384 45.2442C1.18923 45.8114 1.49359 46.4243 1.99302 46.5225C2.65708 46.6539 3.15097 45.8252 3.46917 45.1086C4.41823 42.9684 5.36866 40.8281 6.31772 38.6865C7.68181 35.6111 6.17937 31.5672 5.62737 28.1432Z" fill="#231D4E"/>
<path d="M36.1989 28.1432C37.8092 30.6182 39.4182 33.1485 40.4239 36.0524C41.4297 38.9549 41.7797 42.3181 40.8224 45.2442C40.637 45.8114 40.3326 46.4243 39.8332 46.5225C39.1691 46.6539 38.6753 45.8252 38.3571 45.1086C37.408 42.9684 36.4576 40.8281 35.5085 38.6865C34.1444 35.6111 35.6469 31.5672 36.1989 28.1432Z" fill="#231D4E"/>
<path d="M16.2853 53.8313C16.1345 53.4633 15.8758 53.123 15.5133 52.9584C15.0817 52.7619 14.574 52.8394 14.1216 52.9819C13.6457 53.1313 13.1919 53.3443 12.7118 53.4841C12.3521 53.5892 11.9703 53.6501 11.6009 53.6072C11.4072 53.5851 11.2329 53.7248 11.2274 53.9199L11.1956 54.9934C12.3466 54.9782 13.4976 54.9616 14.6473 54.9464C14.9655 54.9422 16.0889 55.1096 16.324 54.9243C16.627 54.6849 16.443 54.2187 16.2853 53.8327V53.8313Z" stroke="#231D4D" stroke-width="0.668941" stroke-miterlimit="10"/>
<path d="M16.2856 53.8313C16.1348 53.4633 15.8761 53.1229 15.5137 52.9583C15.082 52.7618 14.5743 52.8393 14.1219 52.9818C13.646 53.1312 13.1922 53.3443 12.7122 53.484C12.3718 53.5836 12.0107 53.6431 11.6607 53.6127C11.4311 53.5933 11.2332 53.769 11.2263 53.9987L11.1973 54.992C12.3483 54.9768 13.4993 54.9602 14.649 54.945C14.9672 54.9408 16.0906 55.1082 16.3258 54.9228C16.6287 54.6835 16.4447 54.2172 16.287 53.8313H16.2856Z" fill="#DFA61E"/>
<path d="M26.021 53.8313C26.1718 53.4633 26.4305 53.123 26.793 52.9584C27.2247 52.7619 27.7324 52.8394 28.1848 52.9819C28.6607 53.1313 29.1145 53.3443 29.5945 53.4841C30.0248 53.61 30.4882 53.6722 30.9213 53.5685C30.9974 53.5505 31.0707 53.6072 31.0721 53.6861L31.1108 54.9934C29.9598 54.9782 28.8087 54.9616 27.6591 54.9464C27.3409 54.9422 26.2175 55.1096 25.9823 54.9243C25.6793 54.6849 25.8633 54.2187 26.021 53.8327V53.8313Z" stroke="#231D4D" stroke-width="0.668941" stroke-miterlimit="10"/>
<path d="M26.021 53.8313C26.1718 53.4633 26.4305 53.123 26.793 52.9584C27.2247 52.7619 27.7324 52.8394 28.1848 52.9819C28.6607 53.1313 29.1145 53.3443 29.5945 53.4841C29.9155 53.5781 30.2558 53.6363 30.5878 53.6169C30.8493 53.6017 31.0748 53.7954 31.0831 54.0568L31.1108 54.9921C29.9598 54.9768 28.8087 54.9602 27.6591 54.945C27.3409 54.9409 26.2175 55.1083 25.9823 54.9229C25.6793 54.6835 25.8633 54.2173 26.021 53.8313Z" fill="#DFA61E"/>
<path d="M2.46629 37.1011C1.90737 38.9812 1.49371 41.0204 2.12457 42.8771C2.19374 43.079 2.30996 43.3073 2.52162 43.3336C2.77203 43.364 2.94496 43.0956 3.05011 42.866C3.86358 41.1007 4.68813 39.2953 4.88319 37.3612C4.93438 36.8521 4.86659 32.3309 4.23435 32.4264C3.91062 32.4748 3.39044 34.3591 3.26869 34.6869C2.9754 35.4824 2.70701 36.289 2.46629 37.1025V37.1011Z" fill="#D4B5EF"/>
<path d="M39.2482 37.1011C39.8071 38.9812 40.2207 41.0204 39.5899 42.8771C39.5207 43.079 39.4045 43.3073 39.1928 43.3336C38.9424 43.364 38.7695 43.0956 38.6643 42.866C37.8509 41.1007 37.0263 39.2953 36.8312 37.3612C36.7801 36.8521 36.8478 32.3309 37.4801 32.4264C37.8038 32.4748 38.324 34.3591 38.4457 34.6869C38.739 35.4824 39.0074 36.289 39.2482 37.1025V37.1011Z" fill="#D4B5EF"/>
</g>
<defs>
<clipPath id="clip0_440_1283">
<rect width="41.8234" height="55.037" fill="white" transform="translate(0.0769043 0.347992)"/>
</clipPath>
</defs>
</svg>
