<svg width="42" height="56" viewBox="0 0 42 56" fill="none" xmlns="http://www.w3.org/2000/svg">
<g clip-path="url(#clip0_1_109)">
<path d="M36.1218 16.3442V37.7547C36.1218 46.1606 29.3069 52.9756 20.9009 52.9756C14.5647 52.9756 9.13183 49.1032 6.84082 43.597C6.09237 41.7985 5.67871 39.8243 5.67871 37.7547V16.3442C5.67871 7.93824 12.4936 1.12329 20.8996 1.12329C23.001 1.12329 25.0029 1.5494 26.8249 2.31999C29.5932 3.4904 31.9423 5.45769 33.5873 7.9327C35.1879 10.3427 36.1218 13.2355 36.1218 16.3456V16.3442Z" stroke="#231D4E" stroke-width="2.00682" stroke-miterlimit="10"/>
<path d="M34.7494 13.7737V35.1842C34.7494 43.5901 27.9345 50.4051 19.5285 50.4051C14.2327 50.4051 9.56762 47.7004 6.84082 43.5957C6.09237 41.7972 5.67871 39.823 5.67871 37.7533V16.3442C5.67871 7.93824 12.4936 1.12329 20.8996 1.12329C23.001 1.12329 25.0029 1.5494 26.8249 2.31999C29.5932 3.4904 31.9423 5.45769 33.5873 7.9327C34.3357 9.73121 34.7494 11.7054 34.7494 13.7751V13.7737Z" stroke="#231D4E" stroke-width="2.00682" stroke-miterlimit="10"/>
<path d="M36.1218 16.3442V37.7547C36.1218 46.1606 29.3069 52.9756 20.9009 52.9756C14.5647 52.9756 9.13183 49.1032 6.84082 43.597C6.09237 41.7985 5.67871 39.8243 5.67871 37.7547V16.3442C5.67871 7.93824 12.4936 1.12329 20.8996 1.12329C23.001 1.12329 25.0029 1.5494 26.8249 2.31999C29.5932 3.4904 31.9423 5.45769 33.5873 7.9327C35.1879 10.3427 36.1218 13.2355 36.1218 16.3456V16.3442Z" fill="#8B68CE"/>
<path d="M34.7494 13.7737V35.1842C34.7494 43.5901 27.9345 50.4051 19.5285 50.4051C14.2327 50.4051 9.56762 47.7004 6.84082 43.5957C6.09237 41.7972 5.67871 39.823 5.67871 37.7533V16.3442C5.67871 7.93824 12.4936 1.12329 20.8996 1.12329C23.001 1.12329 25.0029 1.5494 26.8249 2.31999C29.5932 3.4904 31.9423 5.45769 33.5873 7.9327C34.3357 9.73121 34.7494 11.7054 34.7494 13.7751V13.7737Z" fill="#D4B5EF"/>
<path d="M36.1218 16.3441V25.8264C36.1218 19.5219 32.2882 14.1112 26.8249 11.8008C25.0043 11.0302 23.001 10.6041 20.8996 10.6041C12.4936 10.6041 5.67871 17.419 5.67871 25.825V16.3427C5.67871 7.93677 12.4936 1.12183 20.8996 1.12183C23.001 1.12183 25.0029 1.54793 26.8249 2.31852C32.2882 4.62891 36.1218 10.0383 36.1218 16.3441Z" fill="#7808FF"/>
<path d="M0.934316 11.3237C2.90852 9.43109 5.56338 8.37689 8.25559 7.89268C10.9464 7.40985 13.7009 7.45688 16.4346 7.50531C17.8167 8.51524 19.1407 9.66351 20.668 10.4341C21.2823 10.744 21.9851 10.4327 22.5606 10.0536C23.6853 9.31488 24.7603 8.50278 25.7799 7.62428C31.1201 7.05153 36.3717 8.14862 41.1488 10.6057C41.2415 10.6527 41.2498 11.4662 41.2622 11.5907C41.2954 11.9186 41.3231 12.2478 41.3466 12.5771C41.4601 14.1446 41.4725 15.7176 41.4172 17.2878C41.3895 18.075 41.3438 18.8608 41.2857 19.6452C41.2332 20.3466 41.211 21.1048 41.0326 21.7854C40.9745 22.004 40.8804 22.2461 40.724 22.4149C40.6037 22.5436 40.4432 22.5906 40.2966 22.6861C39.8594 22.9711 39.4347 23.274 38.992 23.5493C38.1079 24.1 37.1948 24.6049 36.2569 25.0587C34.5773 25.8694 32.6889 26.3509 30.842 26.0935C28.479 25.7643 26.455 24.2923 24.55 22.8562C23.7766 22.2738 22.5938 22.289 21.6434 22.1064C20.6929 21.9238 19.6885 21.9141 18.7768 22.2378C17.8817 22.556 17.1263 23.1717 16.4166 23.8039C14.5642 25.4558 11.9785 26.1987 9.49518 26.207C7.01325 26.2139 4.53685 25.3368 2.61384 23.7666C1.59008 22.9309 0.685293 21.8269 0.520661 20.5168C0.127758 17.4026 0.632722 14.442 0.9357 11.3181L0.934316 11.3237Z" fill="#7808FF"/>
<path d="M9.22221 22.6833C12.4473 22.6833 15.0618 20.0688 15.0618 16.8437C15.0618 13.6186 12.4473 11.0041 9.22221 11.0041C5.9971 11.0041 3.38262 13.6186 3.38262 16.8437C3.38262 20.0688 5.9971 22.6833 9.22221 22.6833Z" fill="#2B2452"/>
<path d="M9.22221 22.6086C12.4473 22.6086 15.0618 19.9941 15.0618 16.769C15.0618 13.5439 12.4473 10.9294 9.22221 10.9294C5.9971 10.9294 3.38262 13.5439 3.38262 16.769C3.38262 19.9941 5.9971 22.6086 9.22221 22.6086Z" stroke="#8D6DD8" stroke-width="0.446373" stroke-miterlimit="10"/>
<path d="M32.4546 22.6833C35.6798 22.6833 38.2942 20.0688 38.2942 16.8437C38.2942 13.6186 35.6798 11.0041 32.4546 11.0041C29.2295 11.0041 26.6151 13.6186 26.6151 16.8437C26.6151 20.0688 29.2295 22.6833 32.4546 22.6833Z" fill="#2B2452"/>
<path d="M32.4546 22.6086C35.6798 22.6086 38.2942 19.9941 38.2942 16.769C38.2942 13.5439 35.6798 10.9294 32.4546 10.9294C29.2295 10.9294 26.6151 13.5439 26.6151 16.769C26.6151 19.9941 29.2295 22.6086 32.4546 22.6086Z" stroke="#8D6DD8" stroke-width="0.446373" stroke-miterlimit="10"/>
<path d="M0.933731 11.249C2.90793 9.35644 5.56279 8.30224 8.25501 7.81803C10.9458 7.3352 13.7003 7.38224 16.434 7.43066C17.8161 8.44059 19.1401 9.58887 20.6674 10.3595C21.2817 10.6694 21.9845 10.3581 22.56 9.979C23.6848 9.24023 24.7597 8.42814 25.7793 7.54964C31.1195 6.97688 36.3711 8.07397 41.1482 10.531C41.2492 10.5836 41.2575 11.4731 41.2699 11.6087C41.3059 11.9836 41.3363 12.3599 41.3612 12.7362C41.465 14.3023 41.4692 15.8753 41.4069 17.4442C41.3751 18.23 41.328 19.0158 41.2672 19.7988C41.2132 20.4864 41.2423 21.3027 40.9697 21.9487C40.7954 22.3624 40.444 22.5118 40.0968 22.7512C39.6886 23.032 39.2736 23.3018 38.853 23.5619C38.0119 24.0793 37.1445 24.5552 36.2549 24.9854C34.5754 25.7962 32.6869 26.2776 30.84 26.0203C28.4771 25.691 26.4531 24.219 24.548 22.783C23.7747 22.2005 22.5918 22.2157 21.6414 22.0331C20.6909 21.8505 19.6866 21.8408 18.7749 22.1646C17.8798 22.4828 17.1244 23.0984 16.4147 23.7306C14.5622 25.3825 11.9765 26.1254 9.49321 26.1337C7.01128 26.1406 4.53488 25.2635 2.61187 23.6933C1.58811 22.8577 0.683325 21.7537 0.518693 20.4435C0.12579 17.3294 0.630753 14.3687 0.933731 11.2449V11.249Z" stroke="#D2B3ED" stroke-width="0.668941" stroke-miterlimit="10"/>
<path d="M17.5481 22.1216C17.7266 21.9999 17.93 21.9169 18.1057 21.791C18.9772 21.1684 18.897 19.7822 19.6593 19.0296C20.2265 18.4707 21.2267 18.4319 21.8355 18.9452C22.6061 19.5954 22.6572 20.8474 23.4569 21.4617C23.764 21.6969 24.15 21.8103 24.4654 22.0345C24.7809 22.2586 25.0243 22.6792 24.857 23.0278C24.7421 23.2657 24.4765 23.3875 24.2316 23.4885C23.533 23.779 22.8343 24.0709 22.1371 24.3614C21.7276 24.533 21.3028 24.7059 20.8601 24.7032C20.3925 24.7004 19.9498 24.5012 19.5292 24.2964C18.8762 23.9782 18.2177 23.649 17.5772 23.3059C17.075 23.0375 17.0736 22.4426 17.5481 22.1202V22.1216Z" stroke="#231D4E" stroke-width="1.11531" stroke-miterlimit="10"/>
<path d="M17.5481 22.1216C17.7266 21.9999 17.93 21.9169 18.1057 21.791C18.9772 21.1684 18.897 19.7822 19.6593 19.0296C20.2265 18.4707 21.2267 18.4319 21.8355 18.9452C22.6061 19.5954 22.6572 20.8474 23.4569 21.4617C23.764 21.6969 24.15 21.8103 24.4654 22.0345C24.7809 22.2586 25.0243 22.6792 24.857 23.0278C24.7421 23.2657 24.4765 23.3875 24.2316 23.4885C23.533 23.779 22.8343 24.0709 22.1371 24.3614C21.7276 24.533 21.3028 24.7059 20.8601 24.7032C20.3925 24.7004 19.9498 24.5012 19.5292 24.2964C18.8762 23.9782 18.2177 23.649 17.5772 23.3059C17.075 23.0375 17.0736 22.4426 17.5481 22.1202V22.1216Z" fill="#F6B31B"/>
<path d="M8.29797 17.7831H11.3693" stroke="#F6B31B" stroke-width="0.668941" stroke-linecap="round" stroke-linejoin="round"/>
<path d="M29.3838 17.8079H32.4551" stroke="#F6B31B" stroke-width="0.668941" stroke-linecap="round" stroke-linejoin="round"/>
<path d="M5.54998 27.7952C3.93963 30.2702 2.33066 32.8005 1.32489 35.7044C0.31911 38.6069 -0.0309055 41.9701 0.92645 44.8962C1.11183 45.4634 1.4162 46.0763 1.91562 46.1745C2.57969 46.3059 3.07358 45.4772 3.39178 44.7606C4.34083 42.6204 5.29127 40.4802 6.24033 38.3385C7.60442 35.2631 6.10198 31.2192 5.54998 27.7952Z" fill="#231D4E"/>
<path d="M36.1221 27.7952C37.7324 30.2702 39.3414 32.8006 40.3472 35.7045C41.353 38.607 41.703 41.9702 40.7456 44.8962C40.5602 45.4634 40.2559 46.0763 39.7564 46.1745C39.0924 46.306 38.5985 45.4773 38.2803 44.7606C37.3312 42.6204 36.3808 40.4802 35.4317 38.3386C34.0676 35.2631 35.5701 31.2193 36.1221 27.7952Z" fill="#231D4E"/>
<path d="M16.2089 53.4832C16.0581 53.1152 15.7994 52.7749 15.4369 52.6103C15.0053 52.4138 14.4976 52.4913 14.0452 52.6338C13.5693 52.7832 13.1155 52.9963 12.6354 53.136C12.2757 53.2411 11.8939 53.302 11.5245 53.2591C11.3308 53.237 11.1565 53.3767 11.151 53.5718L11.1191 54.6453C12.2702 54.6301 13.4212 54.6135 14.5709 54.5983C14.8891 54.5942 16.0124 54.7616 16.2476 54.5762C16.5506 54.3368 16.3666 53.8706 16.2089 53.4846V53.4832Z" stroke="#231D4D" stroke-width="0.668941" stroke-miterlimit="10"/>
<path d="M16.2093 53.4832C16.0585 53.1152 15.7998 52.7748 15.4374 52.6102C15.0057 52.4138 14.498 52.4912 14.0456 52.6337C13.5697 52.7831 13.1159 52.9962 12.6358 53.1359C12.2955 53.2355 11.9344 53.295 11.5844 53.2646C11.3548 53.2452 11.1569 53.4209 11.15 53.6506L11.121 54.6439C12.272 54.6287 13.423 54.6121 14.5727 54.5969C14.8909 54.5927 16.0143 54.7601 16.2494 54.5747C16.5524 54.3354 16.3684 53.8692 16.2107 53.4832H16.2093Z" fill="#DFA61E"/>
<path d="M25.9437 53.4832C26.0944 53.1152 26.3532 52.7749 26.7156 52.6103C27.1473 52.4138 27.655 52.4913 28.1074 52.6338C28.5833 52.7832 29.0371 52.9963 29.5171 53.136C29.9474 53.2619 30.4108 53.3241 30.8439 53.2204C30.92 53.2024 30.9933 53.2591 30.9947 53.338L31.0334 54.6453C29.8824 54.6301 28.7313 54.6135 27.5817 54.5983C27.2635 54.5942 26.1401 54.7616 25.9049 54.5762C25.6019 54.3368 25.7859 53.8706 25.9437 53.4846V53.4832Z" stroke="#231D4D" stroke-width="0.668941" stroke-miterlimit="10"/>
<path d="M25.9437 53.4832C26.0944 53.1152 26.3532 52.7749 26.7156 52.6103C27.1473 52.4138 27.655 52.4913 28.1074 52.6338C28.5833 52.7832 29.0371 52.9963 29.5171 53.136C29.8381 53.2301 30.1784 53.2882 30.5105 53.2688C30.7719 53.2536 30.9974 53.4473 31.0057 53.7087L31.0334 54.644C29.8824 54.6288 28.7313 54.6121 27.5817 54.5969C27.2635 54.5928 26.1401 54.7602 25.9049 54.5748C25.6019 54.3355 25.7859 53.8692 25.9437 53.4832Z" fill="#DFA61E"/>
<path d="M2.38938 36.7531C1.83046 38.6333 1.41681 40.6725 2.04767 42.5291C2.11684 42.7311 2.23305 42.9593 2.44472 42.9856C2.69513 43.0161 2.86806 42.7477 2.9732 42.518C3.78668 40.7527 4.61122 38.9473 4.80629 37.0132C4.85748 36.5041 4.78969 31.9829 4.15745 32.0784C3.83372 32.1268 3.31353 34.0111 3.19179 34.339C2.8985 35.1345 2.6301 35.941 2.38938 36.7545V36.7531Z" fill="#D4B5EF"/>
<path d="M39.1717 36.7531C39.7307 38.6333 40.1443 40.6725 39.5134 42.5291C39.4443 42.7311 39.3281 42.9593 39.1164 42.9856C38.866 43.0161 38.6931 42.7477 38.5879 42.518C37.7744 40.7527 36.9499 38.9473 36.7548 37.0132C36.7036 36.5041 36.7714 31.9829 37.4037 32.0784C37.7274 32.1268 38.2476 34.0111 38.3693 34.339C38.6626 35.1345 38.931 35.941 39.1717 36.7545V36.7531Z" fill="#D4B5EF"/>
</g>
<defs>
<clipPath id="clip0_1_109">
<rect width="41.8234" height="55.037" fill="white"/>
</clipPath>
</defs>
</svg>
