<svg width="21" height="21" viewBox="0 0 21 21" fill="none" xmlns="http://www.w3.org/2000/svg">
<path d="M4.40591 17.7871H16.478C16.8229 17.7871 17.1024 18.0667 17.1024 18.4115C17.1024 18.7276 16.8675 18.9889 16.5628 19.0303L16.478 19.0359H4.40591C4.06105 19.0359 3.78149 18.7563 3.78149 18.4115C3.78149 18.0954 4.01639 17.8341 4.32118 17.7927L4.40591 17.7871ZM13.9803 3.21729C15.7047 3.21729 17.1024 4.61509 17.1024 6.33938V13.4161C17.1024 15.1405 15.7047 16.5382 13.9803 16.5382H6.90358C5.1793 16.5382 3.78149 15.1405 3.78149 13.4161V6.33938C3.78149 4.61509 5.1793 3.21729 6.90358 3.21729H13.9803Z" fill="white"/>
</svg>
