<svg width="32" height="32" viewBox="0 0 32 32" fill="none" xmlns="http://www.w3.org/2000/svg">
<path d="M14.2806 23.3821H17.3311V14.0806H14.2806V23.3821ZM15.8058 10.9801C16.238 10.9801 16.6003 10.8315 16.8926 10.5344C17.185 10.2373 17.3311 9.86907 17.3311 9.42983C17.3311 8.9906 17.185 8.62241 16.8926 8.32528C16.6003 8.02814 16.238 7.87958 15.8058 7.87958C15.3737 7.87958 15.0114 8.02814 14.7191 8.32528C14.4267 8.62241 14.2806 8.9906 14.2806 9.42983C14.2806 9.86907 14.4267 10.2373 14.7191 10.5344C15.0114 10.8315 15.3737 10.9801 15.8058 10.9801ZM15.8058 31.1334C13.6959 31.1334 11.713 30.7265 9.85728 29.9126C8.00153 29.0987 6.38728 27.9942 5.01453 26.5989C3.64178 25.2037 2.55502 23.563 1.75425 21.6769C0.953485 19.7907 0.553101 17.7754 0.553101 15.6309C0.553101 13.4863 0.953485 11.471 1.75425 9.58486C2.55502 7.69871 3.64178 6.05803 5.01453 4.6628C6.38728 3.26757 8.00153 2.16301 9.85728 1.34912C11.713 0.535238 13.6959 0.128296 15.8058 0.128296C17.9158 0.128296 19.8987 0.535238 21.7544 1.34912C23.6102 2.16301 25.2244 3.26757 26.5972 4.6628C27.9699 6.05803 29.0567 7.69871 29.8574 9.58486C30.6582 11.471 31.0586 13.4863 31.0586 15.6309C31.0586 17.7754 30.6582 19.7907 29.8574 21.6769C29.0567 23.563 27.9699 25.2037 26.5972 26.5989C25.2244 27.9942 23.6102 29.0987 21.7544 29.9126C19.8987 30.7265 17.9158 31.1334 15.8058 31.1334Z" fill="#493577"/>
</svg>
