<svg width="32" height="32" viewBox="0 0 32 32" fill="none" xmlns="http://www.w3.org/2000/svg">
<path d="M14.2807 23.5166H17.3312V14.3649H14.2807V23.5166ZM15.806 11.3144C16.2381 11.3144 16.6004 11.1682 16.8927 10.8759C17.1851 10.5835 17.3312 10.2213 17.3312 9.7891C17.3312 9.35694 17.1851 8.99469 16.8927 8.70234C16.6004 8.41 16.2381 8.26382 15.806 8.26382C15.3738 8.26382 15.0116 8.41 14.7192 8.70234C14.4269 8.99469 14.2807 9.35694 14.2807 9.7891C14.2807 10.2213 14.4269 10.5835 14.7192 10.8759C15.0116 11.1682 15.3738 11.3144 15.806 11.3144ZM15.806 31.1429C13.696 31.1429 11.7131 30.7426 9.8574 29.9418C8.00165 29.141 6.3874 28.0543 5.01465 26.6815C3.6419 25.3088 2.55515 23.6945 1.75438 21.8388C0.953607 19.983 0.553223 18.0002 0.553223 15.8902C0.553223 13.7802 0.953607 11.7974 1.75438 9.94163C2.55515 8.08588 3.6419 6.47163 5.01465 5.09888C6.3874 3.72613 8.00165 2.63937 9.8574 1.83861C11.7131 1.03784 13.696 0.637451 15.806 0.637451C17.9159 0.637451 19.8988 1.03784 21.7545 1.83861C23.6103 2.63937 25.2245 3.72613 26.5973 5.09888C27.97 6.47163 29.0568 8.08588 29.8576 9.94163C30.6583 11.7974 31.0587 13.7802 31.0587 15.8902C31.0587 18.0002 30.6583 19.983 29.8576 21.8388C29.0568 23.6945 27.97 25.3088 26.5973 26.6815C25.2245 28.0543 23.6103 29.141 21.7545 29.9418C19.8988 30.7426 17.9159 31.1429 15.806 31.1429Z" fill="#958BAC"/>
</svg>
