<svg width="45" height="153" viewBox="0 0 45 153" fill="none" xmlns="http://www.w3.org/2000/svg">
<path d="M42.5978 131.291C42.5978 125.848 40.4352 120.627 36.5858 116.777C32.7364 112.928 27.5154 110.765 22.0715 110.765C16.6276 110.765 11.4066 112.928 7.55719 116.777C3.70776 120.627 1.54517 125.848 1.54517 131.291L22.0715 131.291H42.5978Z" stroke="#272525" stroke-width="2.93233"/>
<rect x="15.7557" y="101.818" width="12.6316" height="8.94738" rx="2.10526" stroke="#272525" stroke-width="2.93233"/>
<path d="M29.4024 132.607C29.4024 133.57 29.2128 134.523 28.8444 135.413C28.476 136.302 27.936 137.11 27.2552 137.791C26.5745 138.472 25.7664 139.012 24.8769 139.38C23.9875 139.749 23.0343 139.938 22.0716 139.938C21.1089 139.938 20.1556 139.749 19.2662 139.38C18.3767 139.012 17.5686 138.472 16.8879 137.791C16.2071 137.11 15.6672 136.302 15.2987 135.413C14.9303 134.523 14.7407 133.57 14.7407 132.607L22.0716 132.607H29.4024Z" stroke="#272525" stroke-width="2.93233"/>
<path d="M22.8046 144.337V151.668" stroke="#272525" stroke-width="2.27273" stroke-linecap="round"/>
<path d="M12.5938 144.337L7.41007 149.52" stroke="#272525" stroke-width="2.27273" stroke-linecap="round"/>
<path d="M32.3348 144.337L37.5185 149.52" stroke="#272525" stroke-width="2.27273" stroke-linecap="round"/>
<path d="M22.0001 100.682L22.0001 1.81799" stroke="#272525" stroke-width="3.40909" stroke-linecap="round"/>
</svg>
