<svg width="31" height="31" viewBox="0 0 31 31" fill="none" xmlns="http://www.w3.org/2000/svg">
<path d="M15.3008 10.13C13.9213 10.13 12.8031 9.01175 12.8031 7.63232C12.8031 6.25289 13.9213 5.13464 15.3008 5.13464C16.6802 5.13464 17.7985 6.25289 17.7985 7.63232C17.7985 9.01175 16.6802 10.13 15.3008 10.13ZM15.3008 17.623C13.9213 17.623 12.8031 16.5048 12.8031 15.1254C12.8031 13.7459 13.9213 12.6277 15.3008 12.6277C16.6802 12.6277 17.7985 13.7459 17.7985 15.1254C17.7985 16.5048 16.6802 17.623 15.3008 17.623ZM12.8031 22.6184C12.8031 23.9979 13.9213 25.1161 15.3008 25.1161C16.6802 25.1161 17.7985 23.9979 17.7985 22.6184C17.7985 21.2389 16.6802 20.1207 15.3008 20.1207C13.9213 20.1207 12.8031 21.2389 12.8031 22.6184Z" fill="#77679D"/>
</svg>
