<svg width="31" height="31" viewBox="0 0 31 31" fill="none" xmlns="http://www.w3.org/2000/svg">
<path d="M15.6694 10.13C14.29 10.13 13.1718 9.01175 13.1718 7.63232C13.1718 6.25289 14.29 5.13464 15.6694 5.13464C17.0489 5.13464 18.1671 6.25289 18.1671 7.63232C18.1671 9.01175 17.0489 10.13 15.6694 10.13ZM15.6694 17.623C14.29 17.623 13.1718 16.5048 13.1718 15.1254C13.1718 13.7459 14.29 12.6277 15.6694 12.6277C17.0489 12.6277 18.1671 13.7459 18.1671 15.1254C18.1671 16.5048 17.0489 17.623 15.6694 17.623ZM13.1718 22.6184C13.1718 23.9979 14.29 25.1161 15.6694 25.1161C17.0489 25.1161 18.1671 23.9979 18.1671 22.6184C18.1671 21.2389 17.0489 20.1207 15.6694 20.1207C14.29 20.1207 13.1718 21.2389 13.1718 22.6184Z" fill="#77679D"/>
</svg>
