<svg width="31" height="31" viewBox="0 0 31 31" fill="none" xmlns="http://www.w3.org/2000/svg">
<path d="M15.3008 10.3769C13.9213 10.3769 12.8031 9.2587 12.8031 7.87927C12.8031 6.49984 13.9213 5.38159 15.3008 5.38159C16.6802 5.38159 17.7985 6.49984 17.7985 7.87927C17.7985 9.2587 16.6802 10.3769 15.3008 10.3769ZM15.3008 17.87C13.9213 17.87 12.8031 16.7518 12.8031 15.3723C12.8031 13.9928 13.9213 12.8746 15.3008 12.8746C16.6802 12.8746 17.7985 13.9928 17.7985 15.3723C17.7985 16.7518 16.6802 17.87 15.3008 17.87ZM12.8031 22.8653C12.8031 24.2448 13.9213 25.363 15.3008 25.363C16.6802 25.363 17.7985 24.2448 17.7985 22.8653C17.7985 21.4859 16.6802 20.3677 15.3008 20.3677C13.9213 20.3677 12.8031 21.4859 12.8031 22.8653Z" fill="#77679D"/>
</svg>
