<svg width="31" height="31" viewBox="0 0 31 31" fill="none" xmlns="http://www.w3.org/2000/svg">
<path d="M15.6694 10.3769C14.29 10.3769 13.1718 9.2587 13.1718 7.87927C13.1718 6.49984 14.29 5.38159 15.6694 5.38159C17.0489 5.38159 18.1671 6.49984 18.1671 7.87927C18.1671 9.2587 17.0489 10.3769 15.6694 10.3769ZM15.6694 17.87C14.29 17.87 13.1718 16.7518 13.1718 15.3723C13.1718 13.9928 14.29 12.8746 15.6694 12.8746C17.0489 12.8746 18.1671 13.9928 18.1671 15.3723C18.1671 16.7518 17.0489 17.87 15.6694 17.87ZM13.1718 22.8653C13.1718 24.2448 14.29 25.363 15.6694 25.363C17.0489 25.363 18.1671 24.2448 18.1671 22.8653C18.1671 21.4859 17.0489 20.3677 15.6694 20.3677C14.29 20.3677 13.1718 21.4859 13.1718 22.8653Z" fill="#77679D"/>
</svg>
