<svg width="31" height="31" viewBox="0 0 31 31" fill="none" xmlns="http://www.w3.org/2000/svg">
<path d="M15.6694 10.8748C14.29 10.8748 13.1718 9.7565 13.1718 8.37707C13.1718 6.99764 14.29 5.87939 15.6694 5.87939C17.0489 5.87939 18.1671 6.99764 18.1671 8.37707C18.1671 9.7565 17.0489 10.8748 15.6694 10.8748ZM15.6694 18.3678C14.29 18.3678 13.1718 17.2496 13.1718 15.8701C13.1718 14.4906 14.29 13.3724 15.6694 13.3724C17.0489 13.3724 18.1671 14.4906 18.1671 15.8701C18.1671 17.2496 17.0489 18.3678 15.6694 18.3678ZM13.1718 23.3631C13.1718 24.7426 14.29 25.8608 15.6694 25.8608C17.0489 25.8608 18.1671 24.7426 18.1671 23.3631C18.1671 21.9837 17.0489 20.8655 15.6694 20.8655C14.29 20.8655 13.1718 21.9837 13.1718 23.3631Z" fill="#797979"/>
</svg>
