<svg width="31" height="31" viewBox="0 0 31 31" fill="none" xmlns="http://www.w3.org/2000/svg">
<path d="M15.3008 10.6277C13.9214 10.6277 12.8032 9.50943 12.8032 8.13C12.8032 6.75057 13.9214 5.63232 15.3008 5.63232C16.6803 5.63232 17.7985 6.75057 17.7985 8.13C17.7985 9.50943 16.6803 10.6277 15.3008 10.6277ZM15.3008 18.1207C13.9214 18.1207 12.8032 17.0025 12.8032 15.623C12.8032 14.2436 13.9214 13.1254 15.3008 13.1254C16.6803 13.1254 17.7985 14.2436 17.7985 15.623C17.7985 17.0025 16.6803 18.1207 15.3008 18.1207ZM12.8032 23.1161C12.8032 24.4955 13.9214 25.6138 15.3008 25.6138C16.6803 25.6138 17.7985 24.4955 17.7985 23.1161C17.7985 21.7366 16.6803 20.6184 15.3008 20.6184C13.9214 20.6184 12.8032 21.7366 12.8032 23.1161Z" fill="#797979"/>
</svg>
