<svg width="31" height="31" viewBox="0 0 31 31" fill="none" xmlns="http://www.w3.org/2000/svg">
<path d="M15.6694 10.6277C14.29 10.6277 13.1718 9.50943 13.1718 8.13C13.1718 6.75057 14.29 5.63232 15.6694 5.63232C17.0489 5.63232 18.1671 6.75057 18.1671 8.13C18.1671 9.50943 17.0489 10.6277 15.6694 10.6277ZM15.6694 18.1207C14.29 18.1207 13.1718 17.0025 13.1718 15.623C13.1718 14.2436 14.29 13.1254 15.6694 13.1254C17.0489 13.1254 18.1671 14.2436 18.1671 15.623C18.1671 17.0025 17.0489 18.1207 15.6694 18.1207ZM13.1718 23.1161C13.1718 24.4955 14.29 25.6138 15.6694 25.6138C17.0489 25.6138 18.1671 24.4955 18.1671 23.1161C18.1671 21.7366 17.0489 20.6184 15.6694 20.6184C14.29 20.6184 13.1718 21.7366 13.1718 23.1161Z" fill="#797979"/>
</svg>
