<svg width="31" height="31" viewBox="0 0 31 31" fill="none" xmlns="http://www.w3.org/2000/svg">
<path d="M15.6694 10.7512C14.29 10.7512 13.1718 9.63297 13.1718 8.25354C13.1718 6.87411 14.29 5.75586 15.6694 5.75586C17.0489 5.75586 18.1671 6.87411 18.1671 8.25354C18.1671 9.63297 17.0489 10.7512 15.6694 10.7512ZM15.6694 18.2443C14.29 18.2443 13.1718 17.126 13.1718 15.7466C13.1718 14.3671 14.29 13.2489 15.6694 13.2489C17.0489 13.2489 18.1671 14.3671 18.1671 15.7466C18.1671 17.126 17.0489 18.2443 15.6694 18.2443ZM13.1718 23.2396C13.1718 24.6191 14.29 25.7373 15.6694 25.7373C17.0489 25.7373 18.1671 24.6191 18.1671 23.2396C18.1671 21.8601 17.0489 20.7419 15.6694 20.7419C14.29 20.7419 13.1718 21.8601 13.1718 23.2396Z" fill="#797979"/>
</svg>
