<svg width="31" height="31" viewBox="0 0 31 31" fill="none" xmlns="http://www.w3.org/2000/svg">
<path d="M15.3008 10.2535C13.9213 10.2535 12.8031 9.13529 12.8031 7.75586C12.8031 6.37643 13.9213 5.25818 15.3008 5.25818C16.6802 5.25818 17.7985 6.37643 17.7985 7.75586C17.7985 9.13529 16.6802 10.2535 15.3008 10.2535ZM15.3008 17.7466C13.9213 17.7466 12.8031 16.6284 12.8031 15.2489C12.8031 13.8694 13.9213 12.7512 15.3008 12.7512C16.6802 12.7512 17.7985 13.8694 17.7985 15.2489C17.7985 16.6284 16.6802 17.7466 15.3008 17.7466ZM12.8031 22.7419C12.8031 24.1214 13.9213 25.2396 15.3008 25.2396C16.6802 25.2396 17.7985 24.1214 17.7985 22.7419C17.7985 21.3625 16.6802 20.2443 15.3008 20.2443C13.9213 20.2443 12.8031 21.3625 12.8031 22.7419Z" fill="#77679D"/>
</svg>
