<svg width="31" height="31" viewBox="0 0 31 31" fill="none" xmlns="http://www.w3.org/2000/svg">
<path d="M15.6694 10.2535C14.29 10.2535 13.1718 9.13529 13.1718 7.75586C13.1718 6.37643 14.29 5.25818 15.6694 5.25818C17.0489 5.25818 18.1671 6.37643 18.1671 7.75586C18.1671 9.13529 17.0489 10.2535 15.6694 10.2535ZM15.6694 17.7466C14.29 17.7466 13.1718 16.6284 13.1718 15.2489C13.1718 13.8694 14.29 12.7512 15.6694 12.7512C17.0489 12.7512 18.1671 13.8694 18.1671 15.2489C18.1671 16.6284 17.0489 17.7466 15.6694 17.7466ZM13.1718 22.7419C13.1718 24.1214 14.29 25.2396 15.6694 25.2396C17.0489 25.2396 18.1671 24.1214 18.1671 22.7419C18.1671 21.3625 17.0489 20.2443 15.6694 20.2443C14.29 20.2443 13.1718 21.3625 13.1718 22.7419Z" fill="#77679D"/>
</svg>
