<svg width="31" height="31" viewBox="0 0 31 31" fill="none" xmlns="http://www.w3.org/2000/svg">
<path d="M15.3008 10.7512C13.9214 10.7512 12.8032 9.63297 12.8032 8.25354C12.8032 6.87411 13.9214 5.75586 15.3008 5.75586C16.6803 5.75586 17.7985 6.87411 17.7985 8.25354C17.7985 9.63297 16.6803 10.7512 15.3008 10.7512ZM15.3008 18.2443C13.9214 18.2443 12.8032 17.126 12.8032 15.7466C12.8032 14.3671 13.9214 13.2489 15.3008 13.2489C16.6803 13.2489 17.7985 14.3671 17.7985 15.7466C17.7985 17.126 16.6803 18.2443 15.3008 18.2443ZM12.8032 23.2396C12.8032 24.6191 13.9214 25.7373 15.3008 25.7373C16.6803 25.7373 17.7985 24.6191 17.7985 23.2396C17.7985 21.8601 16.6803 20.7419 15.3008 20.7419C13.9214 20.7419 12.8032 21.8601 12.8032 23.2396Z" fill="#797979"/>
</svg>
