<svg width="31" height="31" viewBox="0 0 31 31" fill="none" xmlns="http://www.w3.org/2000/svg">
<path d="M15.3008 10.8748C13.9214 10.8748 12.8032 9.7565 12.8032 8.37707C12.8032 6.99764 13.9214 5.87939 15.3008 5.87939C16.6803 5.87939 17.7985 6.99764 17.7985 8.37707C17.7985 9.7565 16.6803 10.8748 15.3008 10.8748ZM15.3008 18.3678C13.9214 18.3678 12.8032 17.2496 12.8032 15.8701C12.8032 14.4906 13.9214 13.3724 15.3008 13.3724C16.6803 13.3724 17.7985 14.4906 17.7985 15.8701C17.7985 17.2496 16.6803 18.3678 15.3008 18.3678ZM12.8032 23.3631C12.8032 24.7426 13.9214 25.8608 15.3008 25.8608C16.6803 25.8608 17.7985 24.7426 17.7985 23.3631C17.7985 21.9837 16.6803 20.8655 15.3008 20.8655C13.9214 20.8655 12.8032 21.9837 12.8032 23.3631Z" fill="#797979"/>
</svg>
