<svg width="26" height="26" viewBox="0 0 26 26" fill="none" xmlns="http://www.w3.org/2000/svg">
<path fill-rule="evenodd" clip-rule="evenodd" d="M22.75 4.875C22.75 3.97754 23.4775 3.25 24.375 3.25C25.2725 3.25 26 3.97754 26 4.875V21.125C26 22.0225 25.2725 22.75 24.375 22.75C23.4775 22.75 22.75 22.0225 22.75 21.125V4.875ZM0.475952 11.851L7.46301 4.86389C8.0982 4.2287 9.12805 4.2287 9.76323 4.86389C10.3984 5.49908 10.3984 6.52893 9.76323 7.16412L5.55235 11.375H16.25C17.1475 11.375 17.875 12.1025 17.875 13C17.875 13.8975 17.1475 14.625 16.25 14.625H5.55235L9.76323 18.8359C10.3984 19.4711 10.3984 20.5009 9.76323 21.1361C9.12805 21.7713 8.0982 21.7713 7.46301 21.1361L0.475952 14.149C-0.158651 13.5144 -0.158651 12.4856 0.475952 11.851Z" fill="#493577"/>
</svg>
