<svg width="32" height="31" viewBox="0 0 32 31" fill="none" xmlns="http://www.w3.org/2000/svg">
<path d="M26.2515 6.84132C26.4838 6.70325 26.6833 6.5185 26.8413 6.30128L17.7322 0.886709C16.5402 0.178145 15.0716 0.178145 13.8795 0.886709L4.77048 6.30128C4.92849 6.5185 5.12798 6.70325 5.36027 6.84132L14.8537 12.4844C15.4453 12.8361 16.1664 12.8361 16.758 12.4844L26.2515 6.84132Z" fill="#958BAC"/>
<path d="M29.152 9.96496C29.152 9.78853 29.1406 9.61378 29.1184 9.44165C28.8379 9.69496 28.5309 9.92237 28.1999 10.1191L18.7064 15.7622C16.914 16.8277 14.6978 16.8277 12.9053 15.7622L3.41187 10.1191C3.08083 9.92237 2.77379 9.69496 2.49333 9.44165C2.4711 9.61378 2.45972 9.78853 2.45972 9.96496V21.2511C2.45972 22.6682 3.19404 23.9777 4.38607 24.6863L13.8795 30.3294C15.0715 31.0379 16.5402 31.0379 17.7322 30.3294L27.2257 24.6863C28.4177 23.9777 29.152 22.6682 29.152 21.2511V9.96496Z" fill="#958BAC"/>
</svg>
