<svg width="32" height="31" viewBox="0 0 32 31" fill="none" xmlns="http://www.w3.org/2000/svg">
<path d="M26.2514 6.84139C26.4837 6.70331 26.6832 6.51856 26.8412 6.30134L17.7322 0.88677C16.5402 0.178206 15.0715 0.178206 13.8795 0.88677L4.77045 6.30134C4.92845 6.51856 5.12795 6.70331 5.36024 6.84139L14.8537 12.4845C15.4453 12.8361 16.1664 12.8361 16.758 12.4845L26.2514 6.84139Z" fill="#493577"/>
<path d="M29.152 9.96502C29.152 9.78859 29.1406 9.61384 29.1184 9.44171C28.8379 9.69502 28.5309 9.92243 28.1998 10.1192L18.7064 15.7623C16.9139 16.8278 14.6978 16.8278 12.9053 15.7623L3.41184 10.1192C3.0808 9.92243 2.77376 9.69502 2.4933 9.44171C2.47107 9.61384 2.45969 9.78859 2.45969 9.96502V21.2512C2.45969 22.6683 3.19401 23.9778 4.38604 24.6863L13.8795 30.3294C15.0715 31.038 16.5402 31.038 17.7322 30.3294L27.2256 24.6863C28.4177 23.9778 29.152 22.6683 29.152 21.2512V9.96502Z" fill="#493577"/>
</svg>
