<svg width="32" height="32" viewBox="0 0 32 32" fill="none" xmlns="http://www.w3.org/2000/svg">
<path d="M19.619 16.1941C19.619 18.3001 17.9118 20.0073 15.8058 20.0073C13.6999 20.0073 11.9927 18.3001 11.9927 16.1941C11.9927 14.0882 13.6999 12.381 15.8058 12.381C17.9118 12.381 19.619 14.0882 19.619 16.1941Z" fill="white"/>
<path fill-rule="evenodd" clip-rule="evenodd" d="M15.8058 27.6337C24.2297 27.6337 31.0586 18.6988 31.0586 16.1941C31.0586 13.6894 24.2297 4.75458 15.8058 4.75458C7.38199 4.75458 0.553101 13.6894 0.553101 16.1941C0.553101 18.6988 7.38199 27.6337 15.8058 27.6337ZM15.8058 23.8205C20.0178 23.8205 23.4322 20.4061 23.4322 16.1941C23.4322 11.9822 20.0178 8.56776 15.8058 8.56776C11.5939 8.56776 8.17947 11.9822 8.17947 16.1941C8.17947 20.4061 11.5939 23.8205 15.8058 23.8205Z" fill="white"/>
</svg>
