<svg width="32" height="32" viewBox="0 0 32 32" fill="none" xmlns="http://www.w3.org/2000/svg">
<path d="M19.6192 16.1941C19.6192 18.3001 17.9119 20.0073 15.806 20.0073C13.7 20.0073 11.9928 18.3001 11.9928 16.1941C11.9928 14.0882 13.7 12.381 15.806 12.381C17.9119 12.381 19.6192 14.0882 19.6192 16.1941Z" fill="white"/>
<path fill-rule="evenodd" clip-rule="evenodd" d="M15.806 27.6337C24.2298 27.6337 31.0587 18.6988 31.0587 16.1941C31.0587 13.6894 24.2298 4.75458 15.806 4.75458C7.38211 4.75458 0.553223 13.6894 0.553223 16.1941C0.553223 18.6988 7.38211 27.6337 15.806 27.6337ZM15.806 23.8205C20.0179 23.8205 23.4323 20.4061 23.4323 16.1941C23.4323 11.9822 20.0179 8.56776 15.806 8.56776C11.594 8.56776 8.1796 11.9822 8.1796 16.1941C8.1796 20.4061 11.594 23.8205 15.806 23.8205Z" fill="white"/>
</svg>
