<svg width="32" height="32" viewBox="0 0 32 32" fill="none" xmlns="http://www.w3.org/2000/svg">
<path d="M15.8058 31.7828C13.6959 31.7828 11.713 31.3759 9.85728 30.562C8.00153 29.7481 6.38728 28.6436 5.01453 27.2483C3.64178 25.8531 2.55502 24.2124 1.75425 22.3263C0.953485 20.4401 0.553101 18.4248 0.553101 16.2803C0.553101 14.1358 0.953485 12.1204 1.75425 10.2343C2.55502 8.34813 3.64178 6.70744 5.01453 5.31221C6.38728 3.91698 8.00153 2.81242 9.85728 1.99854C11.713 1.18465 13.6959 0.77771 15.8058 0.77771C17.9158 0.77771 19.8987 1.18465 21.7544 1.99854C23.6102 2.81242 25.2244 3.91698 26.5972 5.31221C27.9699 6.70744 29.0567 8.34813 29.8574 10.2343C30.6582 12.1204 31.0586 14.1358 31.0586 16.2803C31.0586 18.4248 30.6582 20.4401 29.8574 22.3263C29.0567 24.2124 27.9699 25.8531 26.5972 27.2483C25.2244 28.6436 23.6102 29.7481 21.7544 30.562C19.8987 31.3759 17.9158 31.7828 15.8058 31.7828ZM11.3826 27.8297L13.2129 23.5665C12.1452 23.1789 11.2237 22.5782 10.4483 21.7643C9.67297 20.9504 9.06922 20.0009 8.63706 18.9157L4.44255 20.6985C5.02724 22.3521 5.92969 23.799 7.14991 25.0392C8.37013 26.2794 9.78101 27.2096 11.3826 27.8297ZM8.63706 13.6448C9.06922 12.5597 9.67297 11.6101 10.4483 10.7962C11.2237 9.98236 12.1452 9.38163 13.2129 8.99407L11.4588 4.73086C9.83186 5.35097 8.40827 6.28112 7.18805 7.52133C5.96783 8.76153 5.05266 10.2084 4.44255 11.862L8.63706 13.6448ZM15.8058 20.931C17.0769 20.931 18.1573 20.4789 19.0471 19.5746C19.9368 18.6703 20.3817 17.5722 20.3817 16.2803C20.3817 14.9884 19.9368 13.8903 19.0471 12.986C18.1573 12.0817 17.0769 11.6295 15.8058 11.6295C14.5348 11.6295 13.4544 12.0817 12.5646 12.986C11.6749 13.8903 11.23 14.9884 11.23 16.2803C11.23 17.5722 11.6749 18.6703 12.5646 19.5746C13.4544 20.4789 14.5348 20.931 15.8058 20.931ZM20.2291 27.8297C21.8307 27.2096 23.2352 26.2859 24.4427 25.0586C25.6502 23.8313 26.559 22.4038 27.1691 20.776L22.9746 18.9157C22.5933 20.0009 22.0086 20.9375 21.2206 21.7256C20.4325 22.5136 19.5174 23.1272 18.4751 23.5665L20.2291 27.8297ZM22.9746 13.5673L27.1691 11.7845C26.559 10.1568 25.6502 8.72923 24.4427 7.50195C23.2352 6.27466 21.8307 5.35097 20.2291 4.73086L18.4751 9.07158C19.5174 9.45915 20.4198 10.047 21.1824 10.835C21.9451 11.623 22.5425 12.5338 22.9746 13.5673Z" fill="#493577"/>
</svg>
