<svg width="32" height="32" viewBox="0 0 32 32" fill="none" xmlns="http://www.w3.org/2000/svg">
<path d="M15.806 31.4579C13.696 31.4579 11.7131 31.0575 9.8574 30.2567C8.00165 29.456 6.3874 28.3692 5.01465 26.9965C3.6419 25.6237 2.55515 24.0095 1.75438 22.1537C0.953607 20.298 0.553223 18.3151 0.553223 16.2051C0.553223 14.0952 0.953607 12.1123 1.75438 10.2566C2.55515 8.40082 3.6419 6.78657 5.01465 5.41382C6.3874 4.04107 8.00165 2.95432 9.8574 2.15355C11.7131 1.35278 13.696 0.952393 15.806 0.952393C17.9159 0.952393 19.8988 1.35278 21.7545 2.15355C23.6103 2.95432 25.2245 4.04107 26.5973 5.41382C27.97 6.78657 29.0568 8.40082 29.8576 10.2566C30.6583 12.1123 31.0587 14.0952 31.0587 16.2051C31.0587 18.3151 30.6583 20.298 29.8576 22.1537C29.0568 24.0095 27.97 25.6237 26.5973 26.9965C25.2245 28.3692 23.6103 29.456 21.7545 30.2567C19.8988 31.0575 17.9159 31.4579 15.806 31.4579ZM11.3827 27.5684L13.213 23.3739C12.1453 22.9926 11.2238 22.4016 10.4484 21.6008C9.67309 20.8 9.06934 19.8658 8.63718 18.7981L4.44267 20.5522C5.02736 22.1791 5.92982 23.6027 7.15004 24.8229C8.37026 26.0432 9.78113 26.9583 11.3827 27.5684ZM8.63718 13.6122C9.06934 12.5445 9.67309 11.6103 10.4484 10.8095C11.2238 10.0087 12.1453 9.41767 13.213 9.03635L11.4589 4.84184C9.83198 5.45195 8.40839 6.36712 7.18817 7.58734C5.96795 8.80756 5.05278 10.2311 4.44267 11.8581L8.63718 13.6122ZM15.806 20.781C17.077 20.781 18.1574 20.3361 19.0472 19.4463C19.9369 18.5566 20.3818 17.4762 20.3818 16.2051C20.3818 14.9341 19.9369 13.8537 19.0472 12.9639C18.1574 12.0742 17.077 11.6293 15.806 11.6293C14.5349 11.6293 13.4545 12.0742 12.5648 12.9639C11.675 13.8537 11.2301 14.9341 11.2301 16.2051C11.2301 17.4762 11.675 18.5566 12.5648 19.4463C13.4545 20.3361 14.5349 20.781 15.806 20.781ZM20.2293 27.5684C21.8308 26.9583 23.2353 26.0495 24.4428 24.842C25.6503 23.6345 26.5592 22.23 27.1693 20.6284L22.9748 18.7981C22.5934 19.8658 22.0088 20.7873 21.2207 21.5627C20.4326 22.338 19.5175 22.9418 18.4752 23.3739L20.2293 27.5684ZM22.9748 13.5359L27.1693 11.7818C26.5592 10.1803 25.6503 8.77578 24.4428 7.56827C23.2353 6.36076 21.8308 5.45195 20.2293 4.84184L18.4752 9.11261C19.5175 9.49393 20.4199 10.0723 21.1826 10.8476C21.9452 11.623 22.5426 12.5191 22.9748 13.5359Z" fill="#958BAC"/>
</svg>
