<svg width="23" height="23" viewBox="0 0 23 23" fill="none" xmlns="http://www.w3.org/2000/svg">
<path d="M8.97942 0.298306C9.10447 0.34085 9.22664 0.391452 9.34512 0.449789L10.7708 1.15169C11.1577 1.34218 11.6111 1.34218 11.998 1.15169L13.4237 0.449789C14.938 -0.295798 16.7701 0.327425 17.5156 1.84178L17.5973 2.02219L17.6671 2.20751L18.1789 3.71188C18.3178 4.12018 18.6384 4.44081 19.0467 4.5797L20.551 5.09145C22.1491 5.63505 23.0039 7.3712 22.4603 8.96922C22.4177 9.09428 22.3672 9.21645 22.3088 9.33493L21.6069 10.7606C21.4164 11.1475 21.4164 11.6009 21.6069 11.9878L22.3088 13.4135C23.0544 14.9278 22.4312 16.7599 20.9168 17.5054C20.7983 17.5638 20.6762 17.6144 20.551 17.6569L19.0467 18.1687C18.6384 18.3076 18.3178 18.6283 18.1789 19.0365L17.6671 20.5408C17.1235 22.1389 15.3874 22.9937 13.7893 22.4501C13.6643 22.4075 13.5422 22.357 13.4237 22.2986L11.998 21.5967C11.6111 21.4062 11.1577 21.4062 10.7708 21.5967L9.34512 22.2986C7.83077 23.0443 5.99871 22.421 5.25313 20.9066C5.19478 20.7881 5.14418 20.666 5.10164 20.5408L4.58989 19.0365C4.451 18.6283 4.13037 18.3076 3.72208 18.1687L2.2177 17.6569C0.619666 17.1133 -0.235104 15.3772 0.308499 13.7792C0.351043 13.6541 0.401645 13.532 0.459982 13.4135L1.16188 11.9878C1.35237 11.6009 1.35237 11.1475 1.16188 10.7606L0.459982 9.33493C-0.285605 7.82058 0.337618 5.98852 1.85197 5.24293C1.97048 5.18459 2.09265 5.13398 2.2177 5.09145L3.72208 4.5797C4.13037 4.44081 4.451 4.12018 4.58989 3.71188L5.10164 2.20751C5.64525 0.609473 7.38139 -0.245297 8.97942 0.298306ZM15.2406 8.00633L9.21764 14.0292L7.02348 11.3963C6.72877 11.0426 6.20318 10.9948 5.84952 11.2895C5.49587 11.5843 5.44809 12.1098 5.74279 12.4635L8.52127 15.7977C8.83506 16.1742 9.40447 16.2001 9.751 15.8534L16.4193 9.18511C16.7449 8.85961 16.7449 8.33184 16.4193 8.00633C16.0938 7.68081 15.5661 7.68081 15.2406 8.00633Z" fill="#6195FA"/>
</svg>
