<svg width="23" height="24" viewBox="0 0 23 24" fill="none" xmlns="http://www.w3.org/2000/svg">
<path d="M8.97948 0.800626C9.10453 0.84317 9.22671 0.893771 9.34518 0.952108L10.7709 1.65401C11.1577 1.8445 11.6112 1.8445 11.9981 1.65401L13.4238 0.952108C14.938 0.206521 16.7702 0.829744 17.5157 2.3441L17.5974 2.52451L17.6672 2.70983L18.1789 4.2142C18.3179 4.62249 18.6385 4.94313 19.0467 5.08202L20.5511 5.59377C22.1492 6.13737 23.0039 7.87352 22.4604 9.47154C22.4178 9.5966 22.3672 9.71877 22.3089 9.83725L21.6069 11.2629C21.4164 11.6498 21.4164 12.1033 21.6069 12.4901L22.3089 13.9158C23.0545 15.4301 22.4312 17.2622 20.9169 18.0077C20.7984 18.0661 20.6762 18.1168 20.5511 18.1592L19.0467 18.671C18.6385 18.8099 18.3179 19.1306 18.1789 19.5388L17.6672 21.0432C17.1236 22.6412 15.3875 23.496 13.7894 22.9524C13.6644 22.9099 13.5422 22.8593 13.4238 22.8009L11.9981 22.099C11.6112 21.9085 11.1577 21.9085 10.7709 22.099L9.34518 22.8009C7.83083 23.5466 5.99877 22.9233 5.25319 21.4089C5.19484 21.2904 5.14424 21.1683 5.10171 21.0432L4.58996 19.5388C4.45107 19.1306 4.13043 18.8099 3.72214 18.671L2.21776 18.1592C0.619727 17.6156 -0.235043 15.8795 0.30856 14.2815C0.351104 14.1564 0.401706 14.0343 0.460043 13.9158L1.16194 12.4901C1.35243 12.1033 1.35243 11.6498 1.16194 11.2629L0.460043 9.83725C-0.285544 8.3229 0.337679 6.49084 1.85204 5.74525C1.97054 5.68691 2.09271 5.6363 2.21776 5.59377L3.72214 5.08202C4.13043 4.94313 4.45107 4.62249 4.58996 4.2142L5.10171 2.70983C5.64531 1.11179 7.38145 0.257023 8.97948 0.800626ZM15.2407 8.50865L9.2177 14.5315L7.02354 11.8987C6.72884 11.5449 6.20324 11.4971 5.84958 11.7918C5.49593 12.0866 5.44815 12.6122 5.74286 12.9658L8.52133 16.3C8.83512 16.6765 9.40453 16.7024 9.75106 16.3558L16.4194 9.68743C16.7449 9.36193 16.7449 8.83416 16.4194 8.50865C16.0939 8.18313 15.5662 8.18313 15.2407 8.50865Z" fill="#6195FA"/>
</svg>
