<svg width="16" height="16" viewBox="0 0 16 16" fill="none" xmlns="http://www.w3.org/2000/svg">
<path d="M6.88227 0.394143C6.96564 0.422505 7.04709 0.45624 7.12608 0.495131L8.07654 0.963063C8.33445 1.09006 8.63675 1.09006 8.89467 0.963063L9.84513 0.495131C10.8546 -0.00192695 12.0761 0.413555 12.5731 1.42313L12.6275 1.5434L12.6741 1.66694L13.0153 2.66986C13.1079 2.94206 13.3216 3.15581 13.5938 3.24841L14.5967 3.58957C15.6621 3.95198 16.2319 5.10941 15.8695 6.17475C15.8411 6.25812 15.8074 6.33957 15.7685 6.41856L15.3006 7.36902C15.1736 7.62693 15.1736 7.92923 15.3006 8.18715L15.7685 9.13761C16.2656 10.1471 15.8501 11.3685 14.8405 11.8656C14.7615 11.9045 14.6801 11.9382 14.5967 11.9665L13.5938 12.3077C13.3216 12.4004 13.1079 12.6141 13.0153 12.8863L12.6741 13.8892C12.3117 14.9545 11.1543 15.5244 10.0889 15.162C10.0055 15.1336 9.92411 15.0999 9.84513 15.061L8.89467 14.593C8.63675 14.4661 8.33445 14.4661 8.07654 14.593L7.12608 15.061C6.11651 15.5581 4.89514 15.1426 4.39808 14.133C4.35918 14.054 4.32545 13.9726 4.29709 13.8892L3.95593 12.8863C3.86333 12.6141 3.64958 12.4004 3.37738 12.3077L2.37446 11.9665C1.30911 11.6042 0.73926 10.4468 1.10166 9.38137C1.13002 9.29802 1.16376 9.21659 1.20265 9.13761L1.67058 8.18715C1.79758 7.92923 1.79758 7.62693 1.67058 7.36902L1.20265 6.41856C0.705593 5.40899 1.12107 4.18762 2.13065 3.69056C2.20965 3.65166 2.29109 3.61793 2.37446 3.58957L3.37738 3.24841C3.64958 3.15581 3.86333 2.94206 3.95593 2.66986L4.29709 1.66694C4.65949 0.601587 5.81693 0.0317407 6.88227 0.394143ZM11.0564 5.53282L7.04109 9.54808L5.57832 7.79283C5.38185 7.55699 5.03145 7.52513 4.79568 7.72162C4.55991 7.91812 4.52805 8.2685 4.72453 8.50426L6.57684 10.727C6.78604 10.9781 7.16564 10.9953 7.39666 10.7642L11.8422 6.31868C12.0592 6.10168 12.0592 5.74983 11.8422 5.53282C11.6252 5.31581 11.2734 5.31581 11.0564 5.53282Z" fill="#E4A01A"/>
</svg>
