<svg width="16" height="16" viewBox="0 0 16 16" fill="none" xmlns="http://www.w3.org/2000/svg">
<path d="M6.8433 0.140725C6.92667 0.169087 7.00812 0.202822 7.0871 0.241713L8.03756 0.709645C8.29548 0.83664 8.59778 0.83664 8.8557 0.709645L9.80616 0.241713C10.8157 -0.255345 12.0371 0.160137 12.5341 1.16971L12.5886 1.28998L12.6351 1.41353L12.9763 2.41644C13.0689 2.68864 13.2827 2.90239 13.5548 2.99499L14.5577 3.33616C15.6231 3.69856 16.1929 4.85599 15.8306 5.92134C15.8022 6.00471 15.7685 6.08616 15.7296 6.16514L15.2616 7.1156C15.1346 7.37351 15.1346 7.67581 15.2616 7.93373L15.7296 8.88419C16.2267 9.8937 15.8111 11.1151 14.8016 11.6121C14.7226 11.651 14.6411 11.6848 14.5577 11.7131L13.5548 12.0543C13.2827 12.1469 13.0689 12.3607 12.9763 12.6328L12.6351 13.6358C12.2727 14.7011 11.1153 15.271 10.0499 14.9086C9.96657 14.8802 9.88514 14.8465 9.80616 14.8076L8.8557 14.3396C8.59778 14.2126 8.29548 14.2126 8.03756 14.3396L7.0871 14.8076C6.07754 15.3047 4.85617 14.8892 4.35911 13.8796C4.32021 13.8006 4.28648 13.7192 4.25812 13.6358L3.91695 12.6328C3.82436 12.3607 3.6106 12.1469 3.33841 12.0543L2.33549 11.7131C1.27014 11.3507 0.700289 10.1933 1.06269 9.12795C1.09105 9.0446 1.12479 8.96317 1.16368 8.88419L1.63161 7.93373C1.75861 7.67581 1.75861 7.37351 1.63161 7.1156L1.16368 6.16514C0.666622 5.15557 1.0821 3.9342 2.09168 3.43714C2.17068 3.39824 2.25212 3.36451 2.33549 3.33616L3.33841 2.99499C3.6106 2.90239 3.82436 2.68864 3.91695 2.41644L4.25812 1.41353C4.62052 0.348169 5.77795 -0.221677 6.8433 0.140725ZM11.0174 5.2794L7.00212 9.29466L5.53935 7.53941C5.34287 7.30357 4.99248 7.27171 4.75671 7.46821C4.52094 7.6647 4.48908 8.01508 4.68555 8.25085L6.53787 10.4736C6.74706 10.7247 7.12667 10.7419 7.35769 10.5108L11.8032 6.06526C12.0203 5.84826 12.0203 5.49641 11.8032 5.2794C11.5862 5.06239 11.2344 5.06239 11.0174 5.2794Z" fill="#E4A01A"/>
</svg>
