<svg width="23" height="23" viewBox="0 0 23 23" fill="none" xmlns="http://www.w3.org/2000/svg">
<path d="M8.98869 0.291836C9.11375 0.33438 9.23592 0.384982 9.3544 0.443319L10.7801 1.14522C11.167 1.33571 11.6204 1.33571 12.0073 1.14522L13.433 0.443319C14.9472 -0.302268 16.7794 0.320955 17.5249 1.83531L17.6066 2.01572L17.6764 2.20104L18.1882 3.70541C18.3271 4.11371 18.6477 4.43434 19.0559 4.57323L20.5603 5.08498C22.1584 5.62859 23.0132 7.36473 22.4696 8.96275C22.427 9.08781 22.3764 9.20998 22.3181 9.32846L21.6161 10.7541C21.4256 11.141 21.4256 11.5945 21.6161 11.9813L22.3181 13.407C23.0637 14.9213 22.4405 16.7534 20.9261 17.4989C20.8076 17.5573 20.6855 17.608 20.5603 17.6504L19.0559 18.1622C18.6477 18.3012 18.3271 18.6218 18.1882 19.03L17.6764 20.5344C17.1328 22.1324 15.3967 22.9872 13.7986 22.4436C13.6736 22.4011 13.5514 22.3505 13.433 22.2921L12.0073 21.5902C11.6204 21.3997 11.167 21.3997 10.7801 21.5902L9.3544 22.2921C7.84005 23.0378 6.00799 22.4145 5.2624 20.9001C5.20406 20.7817 5.15346 20.6595 5.11092 20.5344L4.59917 19.03C4.46028 18.6218 4.13965 18.3012 3.73135 18.1622L2.22698 17.6504C0.628943 17.1068 -0.225827 15.3707 0.317776 13.7727C0.36032 13.6477 0.410922 13.5255 0.469259 13.407L1.17116 11.9813C1.36165 11.5945 1.36165 11.141 1.17116 10.7541L0.469259 9.32846C-0.276328 7.81411 0.346895 5.98205 1.86125 5.23646C1.97976 5.17812 2.10192 5.12752 2.22698 5.08498L3.73135 4.57323C4.13965 4.43434 4.46028 4.11371 4.59917 3.70541L5.11092 2.20104C5.65453 0.603004 7.39067 -0.251766 8.98869 0.291836ZM15.2499 7.99986L9.22692 14.0227L7.03276 11.3899C6.73805 11.0361 6.21245 10.9883 5.8588 11.2831C5.50514 11.5778 5.45736 12.1034 5.75207 12.457L8.53055 15.7912C8.84434 16.1677 9.41374 16.1936 9.76028 15.847L16.4286 9.17864C16.7541 8.85314 16.7541 8.32537 16.4286 7.99986C16.1031 7.67434 15.5754 7.67434 15.2499 7.99986Z" fill="#E4A01A"/>
</svg>
