<svg width="16" height="16" viewBox="0 0 16 16" fill="none" xmlns="http://www.w3.org/2000/svg">
<path d="M6.20259 0.394143C6.28596 0.422505 6.36741 0.45624 6.44639 0.495131L7.39685 0.963063C7.65476 1.09006 7.95706 1.09006 8.21498 0.963063L9.16544 0.495131C10.175 -0.00192695 11.3964 0.413555 11.8934 1.42313L11.9478 1.5434L11.9944 1.66694L12.3356 2.66986C12.4282 2.94206 12.6419 3.15581 12.9141 3.24841L13.917 3.58957C14.9824 3.95198 15.5522 5.10941 15.1898 6.17475C15.1615 6.25812 15.1277 6.33957 15.0889 6.41856L14.6209 7.36902C14.4939 7.62693 14.4939 7.92923 14.6209 8.18715L15.0889 9.13761C15.5859 10.1471 15.1704 11.3685 14.1608 11.8656C14.0819 11.9045 14.0004 11.9382 13.917 11.9665L12.9141 12.3077C12.6419 12.4004 12.4282 12.6141 12.3356 12.8863L11.9944 13.8892C11.632 14.9545 10.4746 15.5244 9.4092 15.162C9.32585 15.1336 9.24442 15.0999 9.16544 15.061L8.21498 14.593C7.95706 14.4661 7.65476 14.4661 7.39685 14.593L6.44639 15.061C5.43682 15.5581 4.21545 15.1426 3.71839 14.133C3.67949 14.054 3.64576 13.9726 3.61741 13.8892L3.27624 12.8863C3.18364 12.6141 2.96989 12.4004 2.69769 12.3077L1.69478 11.9665C0.629419 11.6042 0.0595727 10.4468 0.421975 9.38137C0.450337 9.29802 0.484072 9.21659 0.522963 9.13761L0.990895 8.18715C1.11789 7.92923 1.11789 7.62693 0.990895 7.36902L0.522963 6.41856C0.0259051 5.40899 0.441387 4.18762 1.45096 3.69056C1.52996 3.65166 1.61141 3.61793 1.69478 3.58957L2.69769 3.24841C2.96989 3.15581 3.18364 2.94206 3.27624 2.66986L3.61741 1.66694C3.97981 0.601587 5.13724 0.0317407 6.20259 0.394143ZM10.3767 5.53282L6.3614 9.54808L4.89863 7.79283C4.70216 7.55699 4.35176 7.52513 4.11599 7.72162C3.88022 7.91812 3.84837 8.2685 4.04484 8.50426L5.89715 10.727C6.10635 10.9781 6.48595 10.9953 6.71697 10.7642L11.1625 6.31868C11.3796 6.10168 11.3796 5.74983 11.1625 5.53282C10.9455 5.31581 10.5937 5.31581 10.3767 5.53282Z" fill="#954DEC"/>
</svg>
