<svg width="16" height="16" viewBox="0 0 16 16" fill="none" xmlns="http://www.w3.org/2000/svg">
<path d="M6.88227 0.140725C6.96564 0.169087 7.04709 0.202822 7.12608 0.241713L8.07654 0.709645C8.33445 0.83664 8.63675 0.83664 8.89467 0.709645L9.84513 0.241713C10.8546 -0.255345 12.0761 0.160137 12.5731 1.16971L12.6275 1.28998L12.6741 1.41353L13.0153 2.41644C13.1079 2.68864 13.3216 2.90239 13.5938 2.99499L14.5967 3.33616C15.6621 3.69856 16.2319 4.85599 15.8695 5.92134C15.8411 6.00471 15.8074 6.08616 15.7685 6.16514L15.3006 7.1156C15.1736 7.37351 15.1736 7.67581 15.3006 7.93373L15.7685 8.88419C16.2656 9.8937 15.8501 11.1151 14.8405 11.6121C14.7615 11.651 14.6801 11.6848 14.5967 11.7131L13.5938 12.0543C13.3216 12.1469 13.1079 12.3607 13.0153 12.6328L12.6741 13.6358C12.3117 14.7011 11.1543 15.271 10.0889 14.9086C10.0055 14.8802 9.92411 14.8465 9.84513 14.8076L8.89467 14.3396C8.63675 14.2126 8.33445 14.2126 8.07654 14.3396L7.12608 14.8076C6.11651 15.3047 4.89514 14.8892 4.39808 13.8796C4.35918 13.8006 4.32545 13.7192 4.29709 13.6358L3.95593 12.6328C3.86333 12.3607 3.64958 12.1469 3.37738 12.0543L2.37446 11.7131C1.30911 11.3507 0.73926 10.1933 1.10166 9.12795C1.13002 9.0446 1.16376 8.96317 1.20265 8.88419L1.67058 7.93373C1.79758 7.67581 1.79758 7.37351 1.67058 7.1156L1.20265 6.16514C0.705593 5.15557 1.12107 3.9342 2.13065 3.43714C2.20965 3.39824 2.29109 3.36451 2.37446 3.33616L3.37738 2.99499C3.64958 2.90239 3.86333 2.68864 3.95593 2.41644L4.29709 1.41353C4.65949 0.348169 5.81693 -0.221677 6.88227 0.140725ZM11.0564 5.2794L7.04109 9.29466L5.57832 7.53941C5.38185 7.30357 5.03145 7.27171 4.79568 7.46821C4.55991 7.6647 4.52805 8.01508 4.72453 8.25085L6.57684 10.4736C6.78604 10.7247 7.16564 10.7419 7.39666 10.5108L11.8422 6.06526C12.0592 5.84826 12.0592 5.49641 11.8422 5.2794C11.6252 5.06239 11.2734 5.06239 11.0564 5.2794Z" fill="#E4A01A"/>
</svg>
