<svg width="23" height="23" viewBox="0 0 23 23" fill="none" xmlns="http://www.w3.org/2000/svg">
<path d="M9.12706 0.551724C9.25211 0.594268 9.37429 0.64487 9.49276 0.703207L10.9185 1.4051C11.3053 1.5956 11.7588 1.5956 12.1457 1.4051L13.5713 0.703207C15.0856 -0.0423802 16.9177 0.580843 17.6633 2.0952L17.7449 2.27561L17.8147 2.46093L18.3265 3.9653C18.4655 4.37359 18.7861 4.69423 19.1943 4.83312L20.6987 5.34487C22.2967 5.88847 23.1515 7.62462 22.6079 9.22264C22.5654 9.34769 22.5148 9.46987 22.4565 9.58834L21.7545 11.014C21.564 11.4009 21.564 11.8544 21.7545 12.2412L22.4565 13.6669C23.2021 15.1812 22.5788 17.0133 21.0644 17.7588C20.946 17.8172 20.8238 17.8679 20.6987 17.9103L19.1943 18.4221C18.7861 18.561 18.4655 18.8817 18.3265 19.2899L17.8147 20.7943C17.2712 22.3923 15.5351 23.2471 13.937 22.7035C13.812 22.661 13.6898 22.6104 13.5713 22.552L12.1457 21.8501C11.7588 21.6596 11.3053 21.6596 10.9185 21.8501L9.49276 22.552C7.97842 23.2977 6.14636 22.6744 5.40077 21.16C5.34242 21.0415 5.29182 20.9194 5.24929 20.7943L4.73754 19.2899C4.59865 18.8817 4.27801 18.561 3.86972 18.4221L2.36534 17.9103C0.76731 17.3667 -0.0874598 15.6306 0.456143 14.0326C0.498687 13.9075 0.549289 13.7854 0.607626 13.6669L1.30952 12.2412C1.50002 11.8544 1.50002 11.4009 1.30952 11.014L0.607626 9.58834C-0.137961 8.074 0.485262 6.24194 1.99962 5.49635C2.11813 5.438 2.24029 5.3874 2.36534 5.34487L3.86972 4.83312C4.27801 4.69423 4.59865 4.37359 4.73754 3.9653L5.24929 2.46093C5.79289 0.862891 7.52904 0.00812125 9.12706 0.551724ZM15.3882 8.25974L9.36529 14.2826L7.17113 11.6497C6.87642 11.296 6.35082 11.2482 5.99716 11.5429C5.64351 11.8377 5.59573 12.3633 5.89044 12.7169L8.66891 16.0511C8.9827 16.4276 9.55211 16.4535 9.89864 16.1069L16.567 9.43853C16.8925 9.11302 16.8925 8.58526 16.567 8.25974C16.2415 7.93423 15.7138 7.93423 15.3882 8.25974Z" fill="#954DEC"/>
</svg>
