<svg width="24" height="23" viewBox="0 0 24 23" fill="none" xmlns="http://www.w3.org/2000/svg">
<path d="M9.63402 0.545254C9.75907 0.587798 9.88125 0.6384 9.99972 0.696737L11.4254 1.39864C11.8123 1.58913 12.2657 1.58913 12.6526 1.39864L14.0783 0.696737C15.5926 -0.0488499 17.4247 0.574373 18.1702 2.08873L18.2519 2.26914L18.3217 2.45446L18.8335 3.95883C18.9724 4.36712 19.2931 4.68776 19.7013 4.82665L21.2056 5.3384C22.8037 5.882 23.6585 7.61815 23.1149 9.21617C23.0723 9.34123 23.0218 9.4634 22.9634 9.58187L22.2615 11.0076C22.071 11.3944 22.071 11.8479 22.2615 12.2348L22.9634 13.6605C23.709 15.1747 23.0858 17.0068 21.5714 17.7524C21.4529 17.8107 21.3308 17.8614 21.2056 17.9038L19.7013 18.4156C19.2931 18.5546 18.9724 18.8752 18.8335 19.2834L18.3217 20.7878C17.7781 22.3859 16.042 23.2406 14.4439 22.697C14.3189 22.6545 14.1968 22.6039 14.0783 22.5456L12.6526 21.8436C12.2657 21.6531 11.8123 21.6531 11.4254 21.8436L9.99972 22.5456C8.48537 23.2912 6.65332 22.6679 5.90773 21.1536C5.84938 21.0351 5.79878 20.9129 5.75625 20.7878L5.2445 19.2834C5.10561 18.8752 4.78497 18.5546 4.37668 18.4156L2.8723 17.9038C1.27427 17.3603 0.419498 15.6242 0.963101 14.0261C1.00565 13.9011 1.05625 13.7789 1.11458 13.6605L1.81648 12.2348C2.00697 11.8479 2.00697 11.3944 1.81648 11.0076L1.11458 9.58187C0.368997 8.06753 0.99222 6.23547 2.50658 5.48988C2.62508 5.43153 2.74725 5.38093 2.8723 5.3384L4.37668 4.82665C4.78497 4.68776 5.10561 4.36712 5.2445 3.95883L5.75625 2.45446C6.29985 0.856422 8.036 0.00165153 9.63402 0.545254ZM15.8952 8.25327L9.87225 14.2762L7.67808 11.6433C7.38338 11.2895 6.85778 11.2417 6.50412 11.5365C6.15047 11.8312 6.10269 12.3568 6.3974 12.7104L9.17587 16.0446C9.48966 16.4211 10.0591 16.447 10.4056 16.1004L17.0739 9.43206C17.3995 9.10656 17.3995 8.57879 17.0739 8.25327C16.7484 7.92776 16.2207 7.92776 15.8952 8.25327Z" fill="#6195FA"/>
</svg>
