<svg width="23" height="23" viewBox="0 0 23 23" fill="none" xmlns="http://www.w3.org/2000/svg">
<path d="M8.92003 0.421841C9.04508 0.464385 9.16726 0.514987 9.28573 0.573324L10.7114 1.27522C11.0983 1.46571 11.5517 1.46571 11.9386 1.27522L13.3643 0.573324C14.8786 -0.172263 16.7107 0.45096 17.4562 1.96532L17.5379 2.14573L17.6077 2.33104L18.1195 3.83542C18.2584 4.24371 18.5791 4.56435 18.9873 4.70324L20.4917 5.21499C22.0897 5.75859 22.9445 7.49474 22.4009 9.09276C22.3583 9.21781 22.3078 9.33999 22.2494 9.45846L21.5475 10.8842C21.357 11.271 21.357 11.7245 21.5475 12.1113L22.2494 13.537C22.9951 15.0513 22.3718 16.8834 20.8574 17.629C20.7389 17.6873 20.6168 17.738 20.4917 17.7804L18.9873 18.2922C18.5791 18.4312 18.2584 18.7518 18.1195 19.16L17.6077 20.6644C17.0641 22.2624 15.328 23.1172 13.73 22.5736C13.6049 22.5311 13.4828 22.4805 13.3643 22.4222L11.9386 21.7202C11.5517 21.5297 11.0983 21.5297 10.7114 21.7202L9.28573 22.4222C7.77139 23.1678 5.93933 22.5445 5.19374 21.0301C5.13539 20.9117 5.08479 20.7895 5.04226 20.6644L4.53051 19.16C4.39162 18.7518 4.07098 18.4312 3.66269 18.2922L2.15831 17.7804C0.560279 17.2369 -0.294491 15.5008 0.249112 13.9027C0.291656 13.7777 0.342258 13.6555 0.400594 13.537L1.10249 12.1113C1.29298 11.7245 1.29298 11.271 1.10249 10.8842L0.400594 9.45846C-0.344992 7.94412 0.27823 6.11206 1.79259 5.36647C1.9111 5.30812 2.03326 5.25752 2.15831 5.21499L3.66269 4.70324C4.07098 4.56435 4.39162 4.24371 4.53051 3.83542L5.04226 2.33104C5.58586 0.733008 7.32201 -0.121762 8.92003 0.421841ZM15.1812 8.12986L9.15826 14.1527L6.96409 11.5199C6.66939 11.1661 6.14379 11.1183 5.79013 11.4131C5.43648 11.7078 5.3887 12.2334 5.68341 12.587L8.46188 15.9212C8.77567 16.2977 9.34508 16.3236 9.69161 15.977L16.3599 9.30865C16.6855 8.98314 16.6855 8.45538 16.3599 8.12986C16.0344 7.80435 15.5067 7.80435 15.1812 8.12986Z" fill="#E4A01A"/>
</svg>
