<svg width="23" height="24" viewBox="0 0 23 24" fill="none" xmlns="http://www.w3.org/2000/svg">
<path d="M9.30724 0.924161C9.43229 0.966705 9.55446 1.01731 9.67294 1.07564L11.0986 1.77754C11.4855 1.96803 11.939 1.96803 12.3258 1.77754L13.7515 1.07564C15.2658 0.330056 17.0979 0.953279 17.8434 2.46764L17.9251 2.64805L17.9949 2.83336L18.5067 4.33774C18.6456 4.74603 18.9663 5.06667 19.3745 5.20556L20.8789 5.71731C22.4769 6.26091 23.3317 7.99706 22.7881 9.59508C22.7455 9.72013 22.695 9.84231 22.6366 9.96078L21.9347 11.3865C21.7442 11.7733 21.7442 12.2268 21.9347 12.6137L22.6366 14.0394C23.3823 15.5536 22.759 17.3858 21.2446 18.1313C21.1261 18.1896 21.004 18.2403 20.8789 18.2828L19.3745 18.7946C18.9663 18.9335 18.6456 19.2541 18.5067 19.6623L17.9949 21.1667C17.4513 22.7648 15.7152 23.6195 14.1172 23.076C13.9921 23.0334 13.87 22.9828 13.7515 22.9245L12.3258 22.2225C11.939 22.032 11.4855 22.032 11.0986 22.2225L9.67294 22.9245C8.15859 23.6701 6.32653 23.0468 5.58095 21.5325C5.5226 21.414 5.472 21.2918 5.42946 21.1667L4.91771 19.6623C4.77882 19.2541 4.45819 18.9335 4.0499 18.7946L2.54552 18.2828C0.947486 17.7392 0.092716 16.0031 0.636319 14.405C0.678863 14.28 0.729465 14.1578 0.787801 14.0394L1.4897 12.6137C1.68019 12.2268 1.68019 11.7733 1.4897 11.3865L0.787801 9.96078C0.0422146 8.44643 0.665438 6.61438 2.17979 5.86879C2.2983 5.81044 2.42047 5.75984 2.54552 5.71731L4.0499 5.20556C4.45819 5.06667 4.77882 4.74603 4.91771 4.33774L5.42946 2.83336C5.97307 1.23533 7.70921 0.380558 9.30724 0.924161ZM15.5684 8.63218L9.54546 14.6551L7.3513 12.0222C7.05659 11.6684 6.531 11.6206 6.17734 11.9154C5.82369 12.2101 5.77591 12.7357 6.07061 13.0893L8.84909 16.4235C9.16288 16.8001 9.73229 16.8259 10.0788 16.4793L16.7472 9.81097C17.0727 9.48546 17.0727 8.9577 16.7472 8.63218C16.4216 8.30667 15.8939 8.30667 15.5684 8.63218Z" fill="#954DEC"/>
</svg>
