<svg width="23" height="24" viewBox="0 0 23 24" fill="none" xmlns="http://www.w3.org/2000/svg">
<path d="M8.98875 0.794034C9.11381 0.836578 9.23598 0.887179 9.35446 0.945516L10.7801 1.64741C11.167 1.83791 11.6205 1.83791 12.0073 1.64741L13.433 0.945516C14.9473 0.199929 16.7794 0.823152 17.525 2.33751L17.6066 2.51792L17.6764 2.70323L18.1882 4.20761C18.3272 4.6159 18.6478 4.93654 19.056 5.07543L20.5604 5.58718C22.1584 6.13078 23.0132 7.86693 22.4696 9.46495C22.4271 9.59 22.3765 9.71218 22.3182 9.83065L21.6162 11.2563C21.4257 11.6432 21.4257 12.0967 21.6162 12.4835L22.3182 13.9092C23.0638 15.4235 22.4405 17.2556 20.9261 18.0011C20.8077 18.0595 20.6855 18.1102 20.5604 18.1526L19.056 18.6644C18.6478 18.8033 18.3272 19.124 18.1882 19.5322L17.6764 21.0366C17.1329 22.6346 15.3967 23.4894 13.7987 22.9458C13.6737 22.9033 13.5515 22.8527 13.433 22.7943L12.0073 22.0924C11.6205 21.9019 11.167 21.9019 10.7801 22.0924L9.35446 22.7943C7.84011 23.54 6.00805 22.9167 5.26247 21.4023C5.20412 21.2839 5.15352 21.1617 5.11098 21.0366L4.59923 19.5322C4.46034 19.124 4.13971 18.8033 3.73142 18.6644L2.22704 18.1526C0.629005 17.609 -0.225765 15.8729 0.317837 14.2749C0.360381 14.1498 0.410983 14.0277 0.46932 13.9092L1.17122 12.4835C1.36171 12.0967 1.36171 11.6432 1.17122 11.2563L0.46932 9.83065C-0.276267 8.31631 0.346956 6.48425 1.86131 5.73866C1.97982 5.68031 2.10198 5.62971 2.22704 5.58718L3.73142 5.07543C4.13971 4.93654 4.46034 4.6159 4.59923 4.20761L5.11098 2.70323C5.65459 1.1052 7.39073 0.250431 8.98875 0.794034ZM15.2499 8.50205L9.22698 14.5249L7.03282 11.8921C6.73811 11.5383 6.21251 11.4905 5.85886 11.7853C5.5052 12.08 5.45743 12.6056 5.75213 12.9592L8.53061 16.2934C8.8444 16.6699 9.41381 16.6958 9.76034 16.3492L16.4287 9.68084C16.7542 9.35533 16.7542 8.82757 16.4287 8.50205C16.1031 8.17654 15.5755 8.17654 15.2499 8.50205Z" fill="#E4A01A"/>
</svg>
