<svg width="22" height="22" viewBox="0 0 22 22" fill="none" xmlns="http://www.w3.org/2000/svg">
<path d="M8.91499 0.764892C9.03335 0.80516 9.14899 0.853055 9.26113 0.908271L10.6105 1.57262C10.9767 1.75292 11.4059 1.75292 11.7721 1.57262L13.1215 0.908271C14.5548 0.202571 16.2889 0.792453 16.9945 2.2258L17.0718 2.39656L17.1379 2.57195L17.6223 3.99585C17.7538 4.3823 18.0573 4.68578 18.4437 4.81724L19.8676 5.30161C21.3801 5.81614 22.1892 7.4594 21.6747 8.97193C21.6344 9.0903 21.5865 9.20594 21.5313 9.31807L20.8669 10.6675C20.6866 11.0337 20.6866 11.4629 20.8669 11.829L21.5313 13.1785C22.237 14.6117 21.6471 16.3458 20.2137 17.0515C20.1016 17.1067 19.986 17.1547 19.8676 17.1948L18.4437 17.6793C18.0573 17.8107 17.7538 18.1142 17.6223 18.5006L17.1379 19.9245C16.6234 21.4371 14.9802 22.2461 13.4676 21.7316C13.3493 21.6913 13.2336 21.6435 13.1215 21.5882L11.7721 20.9238C11.4059 20.7435 10.9767 20.7435 10.6105 20.9238L9.26113 21.5882C7.82779 22.294 6.09375 21.7041 5.38805 20.2707C5.33282 20.1586 5.28493 20.0429 5.24467 19.9245L4.7603 18.5006C4.62884 18.1142 4.32535 17.8107 3.93891 17.6793L2.51501 17.1948C1.00247 16.6803 0.193425 15.0371 0.707947 13.5245C0.748215 13.4062 0.796109 13.2906 0.851325 13.1785L1.51567 11.829C1.69597 11.4629 1.69597 11.0337 1.51567 10.6675L0.851325 9.31807C0.145626 7.88474 0.735507 6.15069 2.16885 5.44499C2.28102 5.38977 2.39665 5.34187 2.51501 5.30161L3.93891 4.81724C4.32535 4.68578 4.62884 4.3823 4.7603 3.99585L5.24467 2.57195C5.75919 1.05941 7.40246 0.250371 8.91499 0.764892ZM14.8412 8.06055L9.14047 13.7612L7.06369 11.2692C6.78475 10.9344 6.28727 10.8891 5.95254 11.1681C5.6178 11.4471 5.57258 11.9445 5.85152 12.2793L8.48135 15.4351C8.77835 15.7915 9.3173 15.816 9.64529 15.4879L15.9569 9.17627C16.265 8.86818 16.265 8.36865 15.9569 8.06055C15.6488 7.75245 15.1493 7.75245 14.8412 8.06055Z" fill="#F8EAE3"/>
</svg>
