<svg width="24" height="24" viewBox="0 0 24 24" fill="none" xmlns="http://www.w3.org/2000/svg">
<path d="M9.63402 1.04306C9.75907 1.0856 9.88125 1.1362 9.99972 1.19454L11.4254 1.89644C11.8123 2.08693 12.2657 2.08693 12.6526 1.89644L14.0783 1.19454C15.5926 0.448953 17.4247 1.07218 18.1702 2.58653L18.2519 2.76694L18.3217 2.95226L18.8335 4.45664C18.9724 4.86493 19.2931 5.18556 19.7013 5.32445L21.2056 5.8362C22.8037 6.37981 23.6585 8.11595 23.1149 9.71397C23.0723 9.83903 23.0218 9.9612 22.9634 10.0797L22.2615 11.5054C22.071 11.8922 22.071 12.3457 22.2615 12.7326L22.9634 14.1583C23.709 15.6725 23.0858 17.5046 21.5714 18.2502C21.4529 18.3085 21.3308 18.3592 21.2056 18.4017L19.7013 18.9134C19.2931 19.0524 18.9724 19.373 18.8335 19.7812L18.3217 21.2856C17.7781 22.8837 16.042 23.7384 14.4439 23.1949C14.3189 23.1523 14.1968 23.1017 14.0783 23.0434L12.6526 22.3414C12.2657 22.1509 11.8123 22.1509 11.4254 22.3414L9.99972 23.0434C8.48537 23.789 6.65332 23.1657 5.90773 21.6514C5.84938 21.5329 5.79878 21.4107 5.75625 21.2856L5.2445 19.7812C5.10561 19.373 4.78497 19.0524 4.37668 18.9134L2.8723 18.4017C1.27427 17.8581 0.419498 16.122 0.963101 14.5239C1.00565 14.3989 1.05625 14.2767 1.11458 14.1583L1.81648 12.7326C2.00697 12.3457 2.00697 11.8922 1.81648 11.5054L1.11458 10.0797C0.368997 8.56533 0.99222 6.73327 2.50658 5.98768C2.62508 5.92934 2.74725 5.87874 2.8723 5.8362L4.37668 5.32445C4.78497 5.18556 5.10561 4.86493 5.2445 4.45664L5.75625 2.95226C6.29985 1.35422 8.036 0.499454 9.63402 1.04306ZM15.8952 8.75108L9.87225 14.774L7.67808 12.1411C7.38338 11.7873 6.85778 11.7395 6.50412 12.0343C6.15047 12.329 6.10269 12.8546 6.3974 13.2082L9.17587 16.5424C9.48966 16.9189 10.0591 16.9448 10.4056 16.5982L17.0739 9.92986C17.3995 9.60436 17.3995 9.07659 17.0739 8.75108C16.7484 8.42556 16.2207 8.42556 15.8952 8.75108Z" fill="#6195FA"/>
</svg>
