<svg width="24" height="24" viewBox="0 0 24 24" fill="none" xmlns="http://www.w3.org/2000/svg">
<path d="M5.14021 0.626343L18.4944 0.628491C21.0414 0.629635 23.1215 2.62794 23.2537 5.14247L23.2605 5.39558V11.1059C23.2605 11.6323 22.8336 12.0592 22.3072 12.0592C21.8245 12.0592 21.4257 11.7006 21.3625 11.2353L21.3539 11.1059V5.39586C21.3535 3.88217 20.1775 2.64302 18.6896 2.54177L18.4939 2.53508L5.13934 2.53294C3.64243 2.53179 2.41375 3.68198 2.28984 5.14735L2.27988 5.34905L2.28318 18.7411C2.28393 20.2548 3.46004 21.4938 4.94797 21.5949L5.14375 21.6015H10.8588C11.3853 21.6015 11.8121 22.0284 11.8121 22.5548C11.8121 23.0375 11.4536 23.4363 10.9882 23.4994L10.8588 23.5081H5.14344C2.59645 23.5074 0.516065 21.5094 0.383315 18.995L0.376591 18.7418L0.374252 5.39618L0.379616 5.13761C0.507244 2.70639 2.45653 0.758177 4.88712 0.632762L5.14021 0.626343ZM9.19943 8.25497L16.8965 8.25424C17.5984 8.25424 18.1676 8.82332 18.1676 9.5253C18.1676 10.1771 17.6768 10.7144 17.0447 10.7879L16.8965 10.7964L12.3464 10.7961L20.6641 19.1111C21.1223 19.5692 21.1577 20.2902 20.7701 20.7889L20.6644 20.9087C20.2064 21.3669 19.4853 21.4024 18.9866 21.0147L18.8668 20.9091L10.544 12.5896L10.5443 17.1532C10.5443 17.805 10.0536 18.3423 9.42139 18.4157L9.27323 18.4243C8.62137 18.4243 8.08413 17.9336 8.01072 17.3014L8.00216 17.1532V9.5253L8.00657 9.41859L8.02629 9.28436L8.0377 9.22629L8.06184 9.14278L8.10804 9.01693L8.1891 8.86219C8.24189 8.77569 8.30454 8.69637 8.37549 8.62552L8.51449 8.50501L8.66923 8.40585L8.7987 8.34489L8.91136 8.30564L9.05277 8.27229L9.19943 8.25497Z" fill="#493577"/>
</svg>
