<svg width="21" height="21" viewBox="0 0 21 21" fill="none" xmlns="http://www.w3.org/2000/svg">
<path d="M8.81011 1.13895C8.92127 1.17676 9.02987 1.22174 9.13518 1.2736L10.4025 1.89751C10.7464 2.06683 11.1494 2.06683 11.4933 1.89751L12.7606 1.2736C14.1066 0.610854 15.7352 1.16483 16.3978 2.51093L16.4705 2.67129L16.5325 2.83601L16.9874 4.17324C17.1109 4.53616 17.3959 4.82117 17.7588 4.94463L19.096 5.39952C20.5165 5.88272 21.2763 7.42596 20.7931 8.84643C20.7553 8.95759 20.7103 9.06619 20.6585 9.1715L20.0345 10.4388C19.8652 10.7827 19.8652 11.1857 20.0345 11.5296L20.6585 12.7969C21.3212 14.1429 20.7672 15.7715 19.4211 16.4342C19.3158 16.486 19.2072 16.5311 19.096 16.5688L17.7588 17.0237C17.3959 17.1472 17.1109 17.4322 16.9874 17.7951L16.5325 19.1323C16.0493 20.5528 14.5061 21.3126 13.0856 20.8294C12.9745 20.7916 12.8659 20.7466 12.7606 20.6948L11.4933 20.0708C11.1494 19.9015 10.7464 19.9015 10.4025 20.0708L9.13518 20.6948C7.7891 21.3576 6.1606 20.8035 5.49786 19.4574C5.44599 19.3521 5.40101 19.2436 5.36321 19.1323L4.90832 17.7951C4.78486 17.4322 4.49985 17.1472 4.13692 17.0237L2.7997 16.5688C1.37922 16.0856 0.619429 14.5424 1.10263 13.1219C1.14045 13.0108 1.18543 12.9022 1.23728 12.7969L1.86119 11.5296C2.03052 11.1857 2.03052 10.7827 1.86119 10.4388L1.23728 9.1715C0.574538 7.82541 1.12851 6.19692 2.47461 5.53417C2.57995 5.48231 2.68854 5.43733 2.7997 5.39952L4.13692 4.94463C4.49985 4.82117 4.78486 4.53616 4.90832 4.17324L5.36321 2.83601C5.84641 1.41554 7.38965 0.655745 8.81011 1.13895ZM14.3756 7.99052L9.02187 13.3442L7.0715 11.0039C6.80954 10.6894 6.34234 10.6469 6.02798 10.9089C5.71362 11.1709 5.67115 11.6381 5.93312 11.9524L8.40287 14.9161C8.6818 15.2508 9.18794 15.2739 9.49596 14.9657L15.4234 9.03833C15.7127 8.74899 15.7127 8.27987 15.4234 7.99052C15.134 7.70117 14.665 7.70117 14.3756 7.99052Z" fill="white"/>
</svg>
