<svg width="16" height="16" viewBox="0 0 16 16" fill="none" xmlns="http://www.w3.org/2000/svg">
<path d="M6.52302 0.394143C6.60639 0.422505 6.68784 0.45624 6.76682 0.495131L7.71728 0.963063C7.9752 1.09006 8.2775 1.09006 8.53541 0.963063L9.48587 0.495131C10.4954 -0.00192695 11.7168 0.413555 12.2138 1.42313L12.2683 1.5434L12.3148 1.66694L12.656 2.66986C12.7486 2.94206 12.9624 3.15581 13.2345 3.24841L14.2374 3.58957C15.3028 3.95198 15.8727 5.10941 15.5103 6.17475C15.4819 6.25812 15.4482 6.33957 15.4093 6.41856L14.9413 7.36902C14.8143 7.62693 14.8143 7.92923 14.9413 8.18715L15.4093 9.13761C15.9064 10.1471 15.4909 11.3685 14.4813 11.8656C14.4023 11.9045 14.3209 11.9382 14.2374 11.9665L13.2345 12.3077C12.9624 12.4004 12.7486 12.6141 12.656 12.8863L12.3148 13.8892C11.9524 14.9545 10.795 15.5244 9.72964 15.162C9.64629 15.1336 9.56486 15.0999 9.48587 15.061L8.53541 14.593C8.2775 14.4661 7.9752 14.4661 7.71728 14.593L6.76682 15.061C5.75726 15.5581 4.53589 15.1426 4.03883 14.133C3.99993 14.054 3.9662 13.9726 3.93784 13.8892L3.59667 12.8863C3.50408 12.6141 3.29032 12.4004 3.01813 12.3077L2.01521 11.9665C0.949854 11.6042 0.380007 10.4468 0.742409 9.38137C0.770772 9.29802 0.804506 9.21659 0.843398 9.13761L1.31133 8.18715C1.43832 7.92923 1.43832 7.62693 1.31133 7.36902L0.843398 6.41856C0.34634 5.40899 0.761822 4.18762 1.77139 3.69056C1.8504 3.65166 1.93184 3.61793 2.01521 3.58957L3.01813 3.24841C3.29032 3.15581 3.50408 2.94206 3.59667 2.66986L3.93784 1.66694C4.30024 0.601587 5.45767 0.0317407 6.52302 0.394143ZM10.6971 5.53282L6.68184 9.54808L5.21906 7.79283C5.02259 7.55699 4.67219 7.52513 4.43642 7.72162C4.20065 7.91812 4.1688 8.2685 4.36527 8.50426L6.21759 10.727C6.42678 10.9781 6.80639 10.9953 7.03741 10.7642L11.483 6.31868C11.7 6.10168 11.7 5.74983 11.483 5.53282C11.266 5.31581 10.9142 5.31581 10.6971 5.53282Z" fill="#6195FA"/>
</svg>
