<svg width="23" height="24" viewBox="0 0 23 24" fill="none" xmlns="http://www.w3.org/2000/svg">
<path d="M8.92003 0.924161C9.04508 0.966705 9.16726 1.01731 9.28573 1.07564L10.7114 1.77754C11.0983 1.96803 11.5517 1.96803 11.9386 1.77754L13.3643 1.07564C14.8786 0.330056 16.7107 0.953279 17.4562 2.46764L17.5379 2.64805L17.6077 2.83336L18.1195 4.33774C18.2584 4.74603 18.5791 5.06667 18.9873 5.20556L20.4917 5.71731C22.0897 6.26091 22.9445 7.99706 22.4009 9.59508C22.3583 9.72013 22.3078 9.84231 22.2494 9.96078L21.5475 11.3865C21.357 11.7733 21.357 12.2268 21.5475 12.6137L22.2494 14.0394C22.9951 15.5536 22.3718 17.3858 20.8574 18.1313C20.7389 18.1896 20.6168 18.2403 20.4917 18.2828L18.9873 18.7946C18.5791 18.9335 18.2584 19.2541 18.1195 19.6623L17.6077 21.1667C17.0641 22.7648 15.328 23.6195 13.73 23.076C13.6049 23.0334 13.4828 22.9828 13.3643 22.9245L11.9386 22.2225C11.5517 22.032 11.0983 22.032 10.7114 22.2225L9.28573 22.9245C7.77139 23.6701 5.93933 23.0468 5.19374 21.5325C5.13539 21.414 5.08479 21.2918 5.04226 21.1667L4.53051 19.6623C4.39162 19.2541 4.07098 18.9335 3.66269 18.7946L2.15831 18.2828C0.560279 17.7392 -0.294491 16.0031 0.249112 14.405C0.291656 14.28 0.342258 14.1578 0.400594 14.0394L1.10249 12.6137C1.29298 12.2268 1.29298 11.7733 1.10249 11.3865L0.400594 9.96078C-0.344992 8.44643 0.27823 6.61438 1.79259 5.86879C1.9111 5.81044 2.03326 5.75984 2.15831 5.71731L3.66269 5.20556C4.07098 5.06667 4.39162 4.74603 4.53051 4.33774L5.04226 2.83336C5.58586 1.23533 7.32201 0.380558 8.92003 0.924161ZM15.1812 8.63218L9.15826 14.6551L6.96409 12.0222C6.66939 11.6684 6.14379 11.6206 5.79013 11.9154C5.43648 12.2101 5.3887 12.7357 5.68341 13.0893L8.46188 16.4235C8.77567 16.8001 9.34508 16.8259 9.69161 16.4793L16.3599 9.81097C16.6855 9.48546 16.6855 8.9577 16.3599 8.63218C16.0344 8.30667 15.5067 8.30667 15.1812 8.63218Z" fill="#E4A01A"/>
</svg>
