<svg width="23" height="24" viewBox="0 0 23 24" fill="none" xmlns="http://www.w3.org/2000/svg">
<path d="M9.12706 1.0494C9.25211 1.09195 9.37429 1.14255 9.49276 1.20089L10.9185 1.90279C11.3053 2.09328 11.7588 2.09328 12.1457 1.90279L13.5713 1.20089C15.0856 0.455301 16.9177 1.07852 17.6633 2.59288L17.7449 2.77329L17.8147 2.95861L18.3265 4.46298C18.4655 4.87127 18.7861 5.19191 19.1943 5.3308L20.6987 5.84255C22.2967 6.38615 23.1515 8.1223 22.6079 9.72032C22.5654 9.84538 22.5148 9.96755 22.4565 10.086L21.7545 11.5117C21.564 11.8986 21.564 12.352 21.7545 12.7389L22.4565 14.1646C23.2021 15.6789 22.5788 17.511 21.0644 18.2565C20.946 18.3149 20.8238 18.3655 20.6987 18.408L19.1943 18.9198C18.7861 19.0587 18.4655 19.3794 18.3265 19.7876L17.8147 21.2919C17.2712 22.89 15.5351 23.7448 13.937 23.2012C13.812 23.1586 13.6898 23.1081 13.5713 23.0497L12.1457 22.3478C11.7588 22.1573 11.3053 22.1573 10.9185 22.3478L9.49276 23.0497C7.97842 23.7953 6.14636 23.1721 5.40077 21.6577C5.34242 21.5392 5.29182 21.4171 5.24929 21.2919L4.73754 19.7876C4.59865 19.3794 4.27801 19.0587 3.86972 18.9198L2.36534 18.408C0.76731 17.8644 -0.0874598 16.1283 0.456143 14.5302C0.498687 14.4052 0.549289 14.2831 0.607626 14.1646L1.30952 12.7389C1.50002 12.352 1.50002 11.8986 1.30952 11.5117L0.607626 10.086C-0.137961 8.57168 0.485262 6.73962 1.99962 5.99403C2.11813 5.93568 2.24029 5.88508 2.36534 5.84255L3.86972 5.3308C4.27801 5.19191 4.59865 4.87127 4.73754 4.46298L5.24929 2.95861C5.79289 1.36057 7.52904 0.505802 9.12706 1.0494ZM15.3882 8.75742L9.36529 14.7803L7.17113 12.1474C6.87642 11.7937 6.35082 11.7459 5.99716 12.0406C5.64351 12.3354 5.59573 12.8609 5.89044 13.2146L8.66891 16.5488C8.9827 16.9253 9.55211 16.9512 9.89864 16.6045L16.567 9.93621C16.8925 9.61071 16.8925 9.08294 16.567 8.75742C16.2415 8.43191 15.7138 8.43191 15.3882 8.75742Z" fill="#954DEC"/>
</svg>
