<svg width="16" height="16" viewBox="0 0 16 16" fill="none" xmlns="http://www.w3.org/2000/svg">
<path d="M6.20265 0.140725C6.28602 0.169087 6.36747 0.202822 6.44645 0.241713L7.39691 0.709645C7.65483 0.83664 7.95712 0.83664 8.21504 0.709645L9.1655 0.241713C10.175 -0.255345 11.3964 0.160137 11.8934 1.16971L11.9479 1.28998L11.9944 1.41353L12.3356 2.41644C12.4282 2.68864 12.642 2.90239 12.9141 2.99499L13.9171 3.33616C14.9824 3.69856 15.5523 4.85599 15.1899 5.92134C15.1615 6.00471 15.1278 6.08616 15.0889 6.16514L14.6209 7.1156C14.4939 7.37351 14.4939 7.67581 14.6209 7.93373L15.0889 8.88419C15.586 9.8937 15.1705 11.1151 14.1609 11.6121C14.0819 11.651 14.0005 11.6848 13.9171 11.7131L12.9141 12.0543C12.642 12.1469 12.4282 12.3607 12.3356 12.6328L11.9944 13.6358C11.632 14.7011 10.4746 15.271 9.40927 14.9086C9.32591 14.8802 9.24448 14.8465 9.1655 14.8076L8.21504 14.3396C7.95712 14.2126 7.65483 14.2126 7.39691 14.3396L6.44645 14.8076C5.43688 15.3047 4.21551 14.8892 3.71845 13.8796C3.67956 13.8006 3.64582 13.7192 3.61747 13.6358L3.2763 12.6328C3.18371 12.3607 2.96995 12.1469 2.69775 12.0543L1.69484 11.7131C0.62948 11.3507 0.0596337 10.1933 0.422036 9.12795C0.450398 9.0446 0.484133 8.96317 0.523024 8.88419L0.990956 7.93373C1.11795 7.67581 1.11795 7.37351 0.990956 7.1156L0.523024 6.16514C0.0259661 5.15557 0.441448 3.9342 1.45102 3.43714C1.53002 3.39824 1.61147 3.36451 1.69484 3.33616L2.69775 2.99499C2.96995 2.90239 3.18371 2.68864 3.2763 2.41644L3.61747 1.41353C3.97987 0.348169 5.1373 -0.221677 6.20265 0.140725ZM10.3768 5.2794L6.36147 9.29466L4.89869 7.53941C4.70222 7.30357 4.35182 7.27171 4.11605 7.46821C3.88028 7.6647 3.84843 8.01508 4.0449 8.25085L5.89722 10.4736C6.10641 10.7247 6.48601 10.7419 6.71704 10.5108L11.1626 6.06526C11.3796 5.84826 11.3796 5.49641 11.1626 5.2794C10.9456 5.06239 10.5938 5.06239 10.3768 5.2794Z" fill="#954DEC"/>
</svg>
