<svg width="16" height="16" viewBox="0 0 16 16" fill="none" xmlns="http://www.w3.org/2000/svg">
<path d="M6.52296 0.140725C6.60633 0.169087 6.68778 0.202822 6.76676 0.241713L7.71722 0.709645C7.97514 0.83664 8.27744 0.83664 8.53535 0.709645L9.48581 0.241713C10.4953 -0.255345 11.7167 0.160137 12.2138 1.16971L12.2682 1.28998L12.3147 1.41353L12.6559 2.41644C12.7486 2.68864 12.9623 2.90239 13.2345 2.99499L14.2374 3.33616C15.3028 3.69856 15.8726 4.85599 15.5102 5.92134C15.4818 6.00471 15.4481 6.08616 15.4092 6.16514L14.9413 7.1156C14.8143 7.37351 14.8143 7.67581 14.9413 7.93373L15.4092 8.88419C15.9063 9.8937 15.4908 11.1151 14.4812 11.6121C14.4022 11.651 14.3208 11.6848 14.2374 11.7131L13.2345 12.0543C12.9623 12.1469 12.7486 12.3607 12.6559 12.6328L12.3147 13.6358C11.9524 14.7011 10.795 15.271 9.72958 14.9086C9.64622 14.8802 9.5648 14.8465 9.48581 14.8076L8.53535 14.3396C8.27744 14.2126 7.97514 14.2126 7.71722 14.3396L6.76676 14.8076C5.7572 15.3047 4.53582 14.8892 4.03877 13.8796C3.99987 13.8006 3.96613 13.7192 3.93778 13.6358L3.59661 12.6328C3.50402 12.3607 3.29026 12.1469 3.01807 12.0543L2.01515 11.7131C0.949793 11.3507 0.379946 10.1933 0.742348 9.12795C0.770711 9.0446 0.804445 8.96317 0.843337 8.88419L1.31127 7.93373C1.43826 7.67581 1.43826 7.37351 1.31127 7.1156L0.843337 6.16514C0.346279 5.15557 0.761761 3.9342 1.77133 3.43714C1.85034 3.39824 1.93178 3.36451 2.01515 3.33616L3.01807 2.99499C3.29026 2.90239 3.50402 2.68864 3.59661 2.41644L3.93778 1.41353C4.30018 0.348169 5.45761 -0.221677 6.52296 0.140725ZM10.6971 5.2794L6.68178 9.29466L5.219 7.53941C5.02253 7.30357 4.67213 7.27171 4.43636 7.46821C4.20059 7.6647 4.16874 8.01508 4.36521 8.25085L6.21753 10.4736C6.42672 10.7247 6.80633 10.7419 7.03735 10.5108L11.4829 6.06526C11.6999 5.84826 11.6999 5.49641 11.4829 5.2794C11.2659 5.06239 10.9141 5.06239 10.6971 5.2794Z" fill="#6195FA"/>
</svg>
