<svg width="23" height="23" viewBox="0 0 23 23" fill="none" xmlns="http://www.w3.org/2000/svg">
<path d="M9.30717 0.421841C9.43223 0.464385 9.5544 0.514987 9.67288 0.573324L11.0986 1.27522C11.4854 1.46571 11.9389 1.46571 12.3258 1.27522L13.7515 0.573324C15.2657 -0.172263 17.0979 0.45096 17.8434 1.96532L17.9251 2.14573L17.9949 2.33104L18.5066 3.83542C18.6456 4.24371 18.9662 4.56435 19.3744 4.70324L20.8788 5.21499C22.4769 5.75859 23.3316 7.49474 22.7881 9.09276C22.7455 9.21781 22.6949 9.33999 22.6366 9.45846L21.9346 10.8842C21.7441 11.271 21.7441 11.7245 21.9346 12.1113L22.6366 13.537C23.3822 15.0513 22.7589 16.8834 21.2446 17.629C21.1261 17.6873 21.0039 17.738 20.8788 17.7804L19.3744 18.2922C18.9662 18.4312 18.6456 18.7518 18.5066 19.16L17.9949 20.6644C17.4513 22.2624 15.7152 23.1172 14.1171 22.5736C13.9921 22.5311 13.8699 22.4805 13.7515 22.4222L12.3258 21.7202C11.9389 21.5297 11.4854 21.5297 11.0986 21.7202L9.67288 22.4222C8.15853 23.1678 6.32647 22.5445 5.58089 21.0301C5.52254 20.9117 5.47194 20.7895 5.4294 20.6644L4.91765 19.16C4.77876 18.7518 4.45813 18.4312 4.04984 18.2922L2.54546 17.7804C0.947425 17.2369 0.0926549 15.5008 0.636258 13.9027C0.678802 13.7777 0.729404 13.6555 0.78774 13.537L1.48964 12.1113C1.68013 11.7245 1.68013 11.271 1.48964 10.8842L0.78774 9.45846C0.0421535 7.94412 0.665376 6.11206 2.17973 5.36647C2.29824 5.30812 2.42041 5.25752 2.54546 5.21499L4.04984 4.70324C4.45813 4.56435 4.77876 4.24371 4.91765 3.83542L5.4294 2.33104C5.97301 0.733008 7.70915 -0.121762 9.30717 0.421841ZM15.5684 8.12986L9.5454 14.1527L7.35124 11.5199C7.05653 11.1661 6.53093 11.1183 6.17728 11.4131C5.82362 11.7078 5.77585 12.2334 6.07055 12.587L8.84903 15.9212C9.16282 16.2977 9.73223 16.3236 10.0788 15.977L16.7471 9.30865C17.0726 8.98314 17.0726 8.45538 16.7471 8.12986C16.4216 7.80435 15.8939 7.80435 15.5684 8.12986Z" fill="#954DEC"/>
</svg>
