<svg width="16" height="16" viewBox="0 0 16 16" fill="none" xmlns="http://www.w3.org/2000/svg">
<path d="M6.80073 0.394143C6.8841 0.422505 6.96555 0.45624 7.04453 0.495131L7.99499 0.963063C8.25291 1.09006 8.55521 1.09006 8.81312 0.963063L9.76358 0.495131C10.7731 -0.00192695 11.9945 0.413555 12.4915 1.42313L12.546 1.5434L12.5925 1.66694L12.9337 2.66986C13.0263 2.94206 13.2401 3.15581 13.5122 3.24841L14.5151 3.58957C15.5805 3.95198 16.1504 5.10941 15.788 6.17475C15.7596 6.25812 15.7259 6.33957 15.687 6.41856L15.219 7.36902C15.092 7.62693 15.092 7.92923 15.219 8.18715L15.687 9.13761C16.1841 10.1471 15.7686 11.3685 14.759 11.8656C14.68 11.9045 14.5986 11.9382 14.5151 11.9665L13.5122 12.3077C13.2401 12.4004 13.0263 12.6141 12.9337 12.8863L12.5925 13.8892C12.2301 14.9545 11.0727 15.5244 10.0073 15.162C9.924 15.1336 9.84257 15.0999 9.76358 15.061L8.81312 14.593C8.55521 14.4661 8.25291 14.4661 7.99499 14.593L7.04453 15.061C6.03497 15.5581 4.8136 15.1426 4.31654 14.133C4.27764 14.054 4.24391 13.9726 4.21555 13.8892L3.87438 12.8863C3.78179 12.6141 3.56803 12.4004 3.29584 12.3077L2.29292 11.9665C1.22756 11.6042 0.657717 10.4468 1.02012 9.38137C1.04848 9.29802 1.08222 9.21659 1.12111 9.13761L1.58904 8.18715C1.71603 7.92923 1.71603 7.62693 1.58904 7.36902L1.12111 6.41856C0.62405 5.40899 1.03953 4.18762 2.0491 3.69056C2.12811 3.65166 2.20955 3.61793 2.29292 3.58957L3.29584 3.24841C3.56803 3.15581 3.78179 2.94206 3.87438 2.66986L4.21555 1.66694C4.57795 0.601587 5.73538 0.0317407 6.80073 0.394143ZM10.9749 5.53282L6.95955 9.54808L5.49677 7.79283C5.3003 7.55699 4.9499 7.52513 4.71413 7.72162C4.47836 7.91812 4.44651 8.2685 4.64298 8.50426L6.4953 10.727C6.70449 10.9781 7.0841 10.9953 7.31512 10.7642L11.7607 6.31868C11.9777 6.10168 11.9777 5.74983 11.7607 5.53282C11.5437 5.31581 11.1919 5.31581 10.9749 5.53282Z" fill="#E4A01A"/>
</svg>
